<?xml version="1.0" encoding="UTF-8"?>
<svg width="120px" height="120px" viewBox="0 0 120 120" version="1.1" xmlns="http://www.w3.org/2000/svg" xmlns:xlink="http://www.w3.org/1999/xlink">
    <title>12</title>
    <g id="Page-1" stroke="none" stroke-width="1" fill="none" fill-rule="evenodd">
        <g id="stibitsweb1-slide3" transform="translate(-657.000000, -3837.000000)" fill-rule="nonzero">
            <g id="image-copy-2" transform="translate(-215.000000, 3436.000000)">
                <g id="texte" transform="translate(0.000000, 60.000000)">
                    <g id="Group-22">
                        <g id="1-copy-8" transform="translate(757.000000, 121.000000)">
                            <g id="12" transform="translate(115.000000, 220.000000)">
                                <path d="M98.5043334,28.5873413 C96.8655396,12.5500488 83.3761596,0 67.03125,0 C56.3873292,0 46.5032958,5.36315906 40.6604004,14.1531373 C40.0845337,14.0927123 39.4985962,14.0625 38.90625,14.0625 C30.1528931,14.0625 23.1317137,20.5737305 21.6339113,28.5681152 C9.72015375,30.1309205 0,40.500183 0,53.203125 C0,66.7730714 11.1447143,77.8125 24.84375,77.8125 L25.5505371,77.8125 C25.0872802,80.0848388 24.84375,82.4368287 24.84375,84.84375 C24.84375,104.229126 40.6146239,120 60,120 C79.3853761,120 95.15625,104.229126 95.15625,84.84375 C95.15625,82.4368287 94.9127198,80.0848388 94.4494629,77.8125 L95.15625,77.8125 C108.855286,77.8125 120,66.7730714 120,53.203125 C120,40.579834 110.383301,30.2142333 98.5043334,28.5873413 Z M60,112.96875 C44.4918823,112.96875 31.875,100.351868 31.875,84.84375 C31.875,69.3356323 44.4918823,56.71875 60,56.71875 C75.5081177,56.71875 88.125,69.3356323 88.125,84.84375 C88.125,100.351868 75.5081177,112.96875 60,112.96875 Z M95.15625,70.78125 L92.2174073,70.78125 C86.7819213,58.3758544 74.3875123,49.6875 60,49.6875 C45.6124877,49.6875 33.2180787,58.3758544 27.7825927,70.78125 L24.84375,70.78125 C15.0219727,70.78125 7.03125,62.895813 7.03125,53.203125 C7.03125,43.5479737 15.1885987,35.390625 24.84375,35.390625 C26.7855834,35.390625 28.359375,33.8168334 28.359375,31.875 C28.359375,26.0311889 33.1887818,21.09375 38.90625,21.09375 C39.7979737,21.09375 40.645752,21.2081909 41.4257812,21.432495 C43.0004883,21.8865966 44.680481,21.1917115 45.4751588,19.7579955 C49.8220826,11.9082642 58.0819702,7.03125 67.03125,7.03125 C80.286255,7.03125 91.1270142,17.6660156 91.6232299,30.9274291 C90.9988404,33.163147 92.6788331,35.390625 95.0097656,35.390625 L95.15625,35.390625 C104.811401,35.390625 112.96875,43.5479737 112.96875,53.203125 C112.96875,62.895813 104.978027,70.78125 95.15625,70.78125 Z" id="Shape" fill="#205BA4"></path>
                                <path d="M47.8571429,92.5714286 C46.2790179,92.5714286 45,93.8504465 45,95.4285714 C45,97.0066964 46.2790179,98.2857143 47.8571429,98.2857143 L50.7142857,98.2857143 L50.7142857,101.142857 C50.7142857,102.720982 51.9933036,104 53.5714286,104 C55.1495535,104 56.4285714,102.720982 56.4285714,101.142857 L56.4285714,98.2857143 L62.1428571,98.2857143 L62.1428571,101.142857 C62.1428571,102.720982 63.421875,104 65,104 C66.578125,104 67.8571429,102.720982 67.8571429,101.142857 L67.8571429,97.7946429 C71.1830358,96.6145832 73.5714286,93.4389882 73.5714286,89.7142857 C73.5714286,87.5208333 72.7425596,85.5178571 71.3816964,84 C72.7425596,82.4821429 73.5714286,80.4791667 73.5714286,78.2857143 C73.5714286,74.5610118 71.1830358,71.3854168 67.8571429,70.2061011 L67.8571429,66.8571429 C67.8571429,65.2790179 66.578125,64 65,64 C63.421875,64 62.1428571,65.2790179 62.1428571,66.8571429 L62.1428571,69.7142857 L56.4285714,69.7142857 L56.4285714,66.8571429 C56.4285714,65.2790179 55.1495535,64 53.5714286,64 C51.9933036,64 50.7142857,65.2790179 50.7142857,66.8571429 L50.7142857,69.7142857 L47.8571429,69.7142857 C46.2790179,69.7142857 45,70.9933036 45,72.5714286 C45,74.1495535 46.2790179,75.4285714 47.8571429,75.4285714 L50.7142857,75.4285714 L50.7142857,92.5714286 L47.8571429,92.5714286 Z M56.4285714,75.4285714 L65,75.4285714 C66.575893,75.4285714 67.8571429,76.7105655 67.8571429,78.2857143 C67.8571429,79.860863 66.575893,81.1428571 65,81.1428571 L56.4285714,81.1428571 L56.4285714,75.4285714 Z M56.4285714,86.8571429 L65,86.8571429 C66.575893,86.8571429 67.8571429,88.139137 67.8571429,89.7142857 C67.8571429,91.2894345 66.575893,92.5714286 65,92.5714286 L56.4285714,92.5714286 L56.4285714,86.8571429 Z" id="Shape" fill="#AFE500"></path>
                                <path d="M59.2216797,40.0097656 C61.1064453,40.0097656 62.1855469,41.1962891 62.1855469,43.0810547 L62.1855469,43.0810547 L62.1855469,43.8525391 C62.1855469,45.7275391 61.1064453,46.9140625 59.2216797,46.9140625 C57.3417969,46.9140625 56.2529297,45.7275391 56.2529297,43.8525391 L56.2529297,43.8525391 L56.2529297,43.0810547 C56.2529297,41.1865234 57.3417969,40.0097656 59.2216797,40.0097656 Z M79.2314453,40 C80.8964844,40 81.7607422,40.9472656 81.7998047,41.9775391 L81.7998047,41.9775391 L80.3154297,41.9775391 C80.2617188,41.5869141 79.890625,41.2255859 79.2265625,41.2255859 C78.5820312,41.2255859 78.2304688,41.5429688 78.2304688,41.9628906 C78.2304688,42.3144531 78.5576172,42.5292969 79.1240234,42.6367188 L79.1240234,42.6367188 L80.0908203,42.8320312 C81.1064453,43.0273438 81.9169922,43.5302734 81.9169922,44.7558594 C81.9169922,46.0253906 80.9746094,46.9140625 79.1777344,46.9140625 C77.2929688,46.9140625 76.5361328,45.9228516 76.4970703,44.8779297 L76.4970703,44.8779297 L78.0253906,44.8779297 C78.0791016,45.3076172 78.5136719,45.6738281 79.2412109,45.6738281 C79.9833984,45.6738281 80.3349609,45.3515625 80.3349609,44.921875 C80.3349609,44.5068359 80.0029297,44.3212891 79.3486328,44.1845703 L79.3486328,44.1845703 L78.40625,43.984375 C77.3466797,43.7646484 76.6337891,43.1884766 76.6337891,42.0849609 C76.6337891,40.7958984 77.6884766,40 79.2314453,40 Z M48.6943359,40.1269531 L49.5488281,44.6289062 L49.6269531,44.6289062 L50.7158203,40.1269531 L52.0244141,40.1269531 L53.1181641,44.6289062 L53.1962891,44.6289062 L54.0410156,40.1269531 L55.7353516,40.1269531 L54.0263672,46.7919922 L52.5322266,46.7919922 L51.3994141,42.5585938 L51.3408203,42.5585938 L50.2080078,46.7919922 L48.7138672,46.7919922 L47,40.1269531 L48.6943359,40.1269531 Z M66.2871094,40.1269531 C67.8691406,40.1269531 68.7382812,40.9960938 68.7382812,42.3144531 C68.7382812,43.3447266 68.0644531,43.984375 67.546875,44.1943359 L67.546875,44.1943359 L68.875,46.7919922 L67.0976562,46.7919922 L65.9697266,44.4189453 L65.046875,44.4189453 L65.046875,46.7919922 L63.4697266,46.7919922 L63.4697266,40.1269531 Z M72.625,40.1269531 C74.7050781,40.1269531 75.6376953,41.3769531 75.6376953,43.4326172 C75.6376953,45.5078125 74.6806641,46.7919922 72.625,46.7919922 L72.625,46.7919922 L70.0126953,46.7919922 L70.0126953,40.1269531 Z M59.2216797,41.3330078 C58.4257812,41.3330078 57.8886719,41.9189453 57.8886719,43.0615234 L57.8886719,43.0615234 L57.8886719,43.8574219 C57.8886719,45.0097656 58.4257812,45.5908203 59.2216797,45.5908203 C60.0126953,45.5908203 60.5498047,45.0097656 60.5498047,43.8574219 L60.5498047,43.8574219 L60.5498047,43.0615234 C60.5498047,41.9189453 60.0126953,41.3330078 59.2216797,41.3330078 Z M72.3710938,41.4160156 L71.6191406,41.4160156 L71.6191406,45.5029297 L72.3710938,45.5029297 C73.5087891,45.5029297 73.9921875,44.8291016 73.9921875,43.4716797 C73.9921875,42.1142578 73.5039062,41.4160156 72.3710938,41.4160156 L72.3710938,41.4160156 Z M66.0478516,41.3476562 L65.046875,41.3476562 L65.046875,43.2714844 L66.0332031,43.2714844 C66.6582031,43.2714844 67.0878906,42.9589844 67.0878906,42.3242188 C67.0878906,41.6845703 66.6386719,41.3476562 66.0478516,41.3476562 L66.0478516,41.3476562 Z M59.109375,16.375 L59.109375,37.703125 L54.03125,37.703125 L54.03125,21.15625 L53.78125,21.15625 L49,24.5 L49,19.90625 L54.03125,16.375 L59.109375,16.375 Z M72.265625,16 C76.9375,16 79.953125,18.609375 79.953125,22.0625 C79.953125,25.171875 77.890625,27 76.140625,28.84375 L76.140625,28.84375 L71.84375,33.359375 L71.84375,33.578125 L80.28125,33.578125 L80.28125,37.703125 L64.90625,37.703125 L64.90625,34.484375 L72.5625,26.625 C73.671875,25.484375 74.90625,24.203125 74.90625,22.578125 C74.90625,21.171875 73.734375,20.0625 72.171875,20.0625 C70.453125,20.0625 69.4375,21.3125 69.4375,22.734375 L69.4375,22.734375 L69.4375,23.0625 L64.609375,23.0625 L64.609375,22.765625 C64.609375,19.5 66.96875,16 72.265625,16 Z" id="Combined-Shape" fill="#9FE700"></path>
                            </g>
                        </g>
                    </g>
                </g>
            </g>
        </g>
    </g>
</svg>