<?xml version="1.0" encoding="UTF-8"?>
<svg width="120px" height="120px" viewBox="0 0 120 120" version="1.1" xmlns="http://www.w3.org/2000/svg" xmlns:xlink="http://www.w3.org/1999/xlink">
    <title>access</title>
    <g id="Page-1" stroke="none" stroke-width="1" fill="none" fill-rule="evenodd">
        <g id="stibitsweb1" transform="translate(-266.000000, -3832.000000)" fill-rule="nonzero">
            <g id="image-copy-2" transform="translate(0.000000, 3436.000000)">
                <g id="texte" transform="translate(151.000000, 60.000000)">
                    <g id="Group-22">
                        <g id="1" transform="translate(0.000000, 116.000000)">
                            <g id="access" transform="translate(115.000000, 220.000000)">
                                <path d="M79.6334838,40.3665162 C85.1156616,45.8477784 94.0356445,45.8486939 99.5178223,40.3665162 C105.006409,34.8779297 105.006409,25.9707642 99.5178223,20.4821777 C94.0292358,14.9935913 85.1220703,14.9926758 79.6334838,20.4821777 C74.1522216,25.9643555 74.1522216,34.8843384 79.6334838,40.3665162 L79.6334838,40.3665162 Z M84.6047974,25.4534911 C87.3458862,22.7124023 91.8054199,22.7114869 94.5465089,25.4534911 C97.2875977,28.1945801 97.2885131,32.6541138 94.5465089,35.3952026 C91.8054199,38.1353761 87.3458862,38.1362916 84.6047974,35.3952026 C81.8637084,32.6541138 81.8637084,28.1936646 84.6047974,25.4534911 Z" id="Shape" fill="#C2E234"></path>
                                <path d="M17.9965209,67.2070312 C21.2365723,63.9669799 21.9213867,59.1256713 20.0546264,55.2072143 L24.9526978,50.3082277 L37.3809816,62.7355957 C37.3846434,62.7401733 37.3901367,62.7438354 37.3947143,62.748413 L20.0344849,80.1361083 C19.3762207,80.795288 19.0063477,81.6879272 19.0063477,82.6199341 L19.0063477,97.4780273 C19.0063477,99.4198608 20.5801392,100.993652 22.5219727,100.993652 L37.284851,100.993652 C39.225769,100.993652 40.7995605,99.4198608 40.7995605,97.4780273 L40.7995605,91.1517333 L47.3611451,91.1517333 C49.302063,91.1517333 50.8758544,89.577942 50.8758544,87.6361083 L50.8758544,81.0726928 L55.8032227,81.0726928 L69.6981811,95.0408934 L64.7927857,99.9453736 C60.8743287,98.0786133 56.0330201,98.7634277 52.7929688,102.003479 C48.6822511,106.115112 48.6822511,112.804871 52.7929688,116.916504 C56.9036864,121.028137 63.5943605,121.028137 67.7059936,116.916504 C70.9460449,113.676453 71.6308594,108.83606 69.7640991,104.916687 L77.1487427,97.5320435 C78.5183716,96.1614989 78.5211183,93.9413452 77.1551512,92.5671387 L62.2375488,77.5744629 L67.1859741,72.6571655 L87.0904542,92.5607299 C88.4628295,93.9340209 90.6884766,93.9340209 92.0617676,92.5607299 C93.4341431,91.1883544 93.4341431,88.9627076 92.0617676,87.590332 L72.8549194,68.3834838 C76.7578125,69.7741699 80.8154297,70.4443359 84.84375,70.430603 L99.9453736,85.5322266 C98.0786133,89.4515991 98.7634277,94.2919922 102.003479,97.5320435 C106.115112,101.643677 112.804871,101.643677 116.916504,97.5320435 C121.028137,93.4204102 121.028137,86.7306518 116.916504,82.6190184 C113.676453,79.3789673 108.835144,78.6941529 104.916687,80.560913 L93.6410522,69.2861939 C99.5123292,67.7545167 105,64.7103881 109.460449,60.2499389 C123.164978,46.5444947 123.164978,24.244995 109.460449,10.5404663 C95.755005,-3.16497797 73.4555053,-3.16497797 59.7500611,10.5404663 C55.2905273,15 52.2454833,20.4885865 50.7147216,26.3589478 L39.439087,15.083313 C41.3058471,11.164856 40.6210327,6.32354742 37.3809816,3.08349609 C33.2693482,-1.02813727 26.5795898,-1.02813727 22.4679565,3.08349609 C18.3563231,7.19512945 18.3563231,13.8848878 22.4679565,17.9965209 C25.7144166,21.2420653 30.5511473,21.9204713 34.4677734,20.0546264 L49.5703125,35.1571655 C49.5556641,39.1845703 50.2267455,43.2421875 51.6174316,47.1459961 L32.409668,27.9382324 C31.0372924,26.5658569 28.8116456,26.5658569 27.4392701,27.9382324 C26.0659791,29.3115234 26.0659791,31.5371705 27.4392701,32.9095458 L47.3281861,52.798462 L42.3605346,57.774353 C42.357788,57.7706909 42.3550416,57.7670288 42.3522949,57.7642823 L27.4392701,42.8512573 C26.0668945,41.4788817 23.840332,41.4788817 22.4679565,42.8512573 L15.083313,50.2359009 C11.164856,48.3691406 6.32354742,49.0539551 3.08349609,52.2940064 C-1.02813727,56.4056395 -1.02813727,63.0953979 3.08349609,67.2070313 C7.19512945,71.3177489 13.8839721,71.3186646 17.9965209,67.2070313 L17.9965209,67.2070312 Z M62.7346802,111.946106 C61.3650513,113.315735 59.1348267,113.31665 57.7642823,111.946106 C56.3937377,110.574646 56.3937377,108.345337 57.7642823,106.974792 C59.1375731,105.601501 61.3613892,105.600586 62.7346802,106.974792 C64.1052246,108.345337 64.1052246,110.574646 62.7346802,111.946106 Z M106.973877,87.590332 C108.348083,86.2161255 110.570984,86.2161255 111.94519,87.590332 C113.315735,88.9608764 113.315735,91.191101 111.94519,92.5616456 C110.574646,93.93219 108.344421,93.93219 106.973877,92.5616456 C105.604248,91.191101 105.603333,88.9608764 106.973877,87.590332 Z M32.409668,13.026123 C31.0391236,14.3966674 28.808899,14.395752 27.4383544,13.026123 C26.06781,11.6555787 26.06781,9.42535406 27.4383544,8.05480969 C28.808899,6.68518078 31.0391236,6.68426508 32.409668,8.05480969 C33.782959,9.42901617 33.782959,11.6519166 32.409668,13.026123 Z M58.640442,51.4178466 C59.6896362,50.3668214 59.9652098,48.769226 59.3289185,47.4279785 C54.2248535,36.66687 56.3919068,23.840332 64.7213745,15.5108644 C75.6848145,4.54742438 93.5247802,4.54742438 104.489136,15.5108644 C115.452576,26.4752198 115.452576,44.3151855 104.489136,55.2786255 C96.159668,63.6080932 83.33313,65.7751465 72.5720215,60.6710815 C71.2335206,60.0366211 69.6395873,60.3085327 68.588562,61.3531495 L55.8151245,74.0451049 L47.3611451,74.0451049 C45.4202271,74.0451049 43.8464355,75.6188965 43.8464355,77.5598145 L43.8464355,84.121399 L37.284851,84.121399 C35.343933,84.121399 33.7701417,85.6951903 33.7701417,87.6361083 L33.7701417,93.9633178 L26.0366822,93.9633178 L26.0366822,84.0737916 L58.640442,51.4178466 Z M8.05389398,57.2644043 C9.42443859,55.8947754 11.654663,55.8938599 13.0252076,57.2644043 C14.3984986,58.6386108 14.3994141,60.8615112 13.0252076,62.2357177 C11.654663,63.6062623 9.42443859,63.6062623 8.05389398,62.2357177 C6.68334961,60.8651733 6.68334961,58.6358644 8.05389398,57.2644043 Z" id="Shape" fill="#315A9F"></path>
                            </g>
                        </g>
                    </g>
                </g>
            </g>
        </g>
    </g>
</svg>