<?xml version="1.0" encoding="UTF-8"?>
<svg width="121px" height="120px" viewBox="0 0 121 120" version="1.1" xmlns="http://www.w3.org/2000/svg" xmlns:xlink="http://www.w3.org/1999/xlink">
    <title>bitcoin</title>
    <g id="Page-1" stroke="none" stroke-width="1" fill="none" fill-rule="evenodd">
        <g id="stibitsweb1" transform="translate(-646.000000, -3832.000000)" fill-rule="nonzero">
            <g id="image-copy-2" transform="translate(0.000000, 3436.000000)">
                <g id="texte" transform="translate(151.000000, 60.000000)">
                    <g id="Group-22">
                        <g id="1-copy" transform="translate(380.000000, 116.000000)">
                            <g id="bitcoin" transform="translate(115.000000, 220.000000)">
                                <path d="M10.6640625,98.6709595 L28.475647,98.6709595 L28.475647,107.279663 L16.3568114,113.338623 C14.6200561,114.207458 13.9169311,116.318665 14.784851,118.05542 C15.6536864,119.792175 17.765808,120.496216 19.5016479,119.62738 L33.5641479,112.597046 C34.7552489,112.001038 35.5078125,110.783386 35.5078125,109.45221 L35.5078125,98.6709595 L42.538147,98.6709595 L42.538147,116.48346 C42.538147,118.424378 44.1128541,119.999607 46.053772,119.999607 C47.9956055,119.999607 49.569397,118.424378 49.569397,116.48346 L49.569397,98.6709595 L56.600647,98.6709595 L56.600647,116.48346 C56.600647,118.424378 58.1753541,119.999607 60.116272,119.999607 C62.0581055,119.999607 63.631897,118.424378 63.631897,116.48346 L63.631897,98.6709595 L70.663147,98.6709595 L70.663147,109.45221 C70.663147,110.783386 71.4157104,112.001038 72.6068114,112.597046 L86.6693114,119.62738 C88.406067,120.496216 90.5172729,119.79126 91.3851928,118.05542 C92.2540284,116.318665 91.5499877,114.207458 89.8132324,113.338623 L77.694397,107.279663 L77.694397,98.6709595 L102.538147,98.6709595 C108.353577,98.6709595 113.084107,93.9404297 113.084107,88.1240845 L113.084107,76.9729615 C117.176514,75.5218505 120.115357,71.61438 120.115357,67.03125 L120.115357,52.96875 C120.115357,48.38562 117.176514,44.4781495 113.084107,43.0270385 L113.084107,31.875 C113.084107,26.0595703 108.353577,21.328125 102.538147,21.328125 L77.694397,21.328125 L77.694397,12.720337 L89.8132324,6.66046148 C91.5499877,5.79254156 92.2540284,3.68041992 91.3851928,1.94458008 C90.5172729,0.207824766 88.406067,-0.496215937 86.6693114,0.371704219 L72.6068114,7.40295422 C71.4157104,7.99896234 70.663147,9.21569813 70.663147,10.5477905 L70.663147,21.3290405 L63.631897,21.3290405 L63.631897,3.51654047 C63.631897,1.57470703 62.0581055,6.64848761e-05 60.116272,6.64848761e-05 C58.1753541,6.64848761e-05 56.600647,1.57470703 56.600647,3.51654047 L56.600647,21.3290405 L49.569397,21.3290405 L49.569397,3.51654047 C49.569397,1.57470703 47.9956055,6.64848761e-05 46.053772,6.64848761e-05 C44.1128541,6.64848761e-05 42.538147,1.57470703 42.538147,3.51654047 L42.538147,21.3290405 L35.5078125,21.3290405 L35.5078125,10.5477905 C35.5078125,9.21569813 34.7552489,7.99896234 33.5641479,7.40295422 L19.5016479,0.371704219 C17.7648926,-0.496215937 15.6536864,0.207824766 14.784851,1.94458008 C13.9169311,3.68041992 14.6209716,5.79254156 16.3568114,6.66046148 L28.475647,12.720337 L28.475647,21.328125 L10.6640625,21.328125 C4.84863281,21.328125 0.1171875,26.0595703 0.1171875,31.875 L0.1171875,88.1240845 C0.1171875,93.9404297 4.84863281,98.6709595 10.6640625,98.6709595 Z M106.052857,88.1240845 C106.052857,90.0631713 104.476318,91.6397095 102.537232,91.6397095 L98.7872316,91.6397095 L98.7872316,77.578125 L106.052857,77.578125 L106.052857,88.1240845 Z M98.7872316,28.359375 L102.537232,28.359375 C104.476318,28.359375 106.052857,29.9368287 106.052857,31.875 L106.052857,42.421875 L98.7872316,42.421875 L98.7872316,28.359375 Z M109.568482,49.453125 C111.507568,49.453125 113.084107,51.0305787 113.084107,52.96875 L113.084107,67.03125 C113.084107,68.9694213 111.507568,70.546875 109.568482,70.546875 L88.241272,70.546875 C82.4249269,70.546875 77.694397,65.8154297 77.694397,60 C77.694397,54.1845703 82.4249269,49.453125 88.241272,49.453125 L109.568482,49.453125 Z M7.1484375,31.875 C7.1484375,29.9368287 8.72497547,28.359375 10.6640625,28.359375 L91.7559816,28.359375 L91.7559816,42.421875 L88.241272,42.421875 C78.548584,42.421875 70.663147,50.307312 70.663147,60 C70.663147,69.692688 78.548584,77.578125 88.241272,77.578125 L91.7559816,77.578125 L91.7559816,91.6397095 L10.6640625,91.6397095 C8.72497547,91.6397095 7.1484375,90.0631713 7.1484375,88.1240845 L7.1484375,31.875 Z" id="Shape" fill="#315A9F"></path>
                                <path d="M91.7559816,60 C91.7559816,61.9418334 90.18219,63.515625 88.241272,63.515625 C86.2994386,63.515625 84.725647,61.9418334 84.725647,60 C84.725647,58.0581666 86.2994386,56.484375 88.241272,56.484375 C90.18219,56.484375 91.7559816,58.0581666 91.7559816,60 L91.7559816,60 Z" id="Path" fill="#315A9F"></path>
                                <path d="M24.960022,70.546875 C23.0191041,70.546875 21.4453125,72.1206666 21.4453125,74.0625 C21.4453125,76.003418 23.0191041,77.578125 24.960022,77.578125 L28.475647,77.578125 L28.475647,81.09375 C28.475647,83.034668 30.0503541,84.609375 31.991272,84.609375 C33.9331055,84.609375 35.506897,83.034668 35.506897,81.09375 L35.506897,77.578125 L42.538147,77.578125 L42.538147,81.09375 C42.538147,83.034668 44.1119386,84.609375 46.053772,84.609375 C47.9956055,84.609375 49.569397,83.034668 49.569397,81.09375 L49.569397,76.9729615 C53.6618041,75.5218505 56.600647,71.61438 56.600647,67.03125 C56.600647,64.3313599 55.579834,61.8676758 53.90625,60 C55.5807495,58.1323242 56.600647,55.6677246 56.600647,52.96875 C56.600647,48.38562 53.6618041,44.4781495 49.569397,43.0270385 L49.569397,38.90625 C49.569397,36.965332 47.9956055,35.390625 46.053772,35.390625 C44.1119386,35.390625 42.538147,36.965332 42.538147,38.90625 L42.538147,42.421875 L35.506897,42.421875 L35.506897,38.90625 C35.506897,36.965332 33.9331055,35.390625 31.991272,35.390625 C30.0503541,35.390625 28.475647,36.965332 28.475647,38.90625 L28.475647,42.421875 L24.960022,42.421875 C23.0191041,42.421875 21.4453125,43.9956666 21.4453125,45.9375 C21.4453125,47.8793334 23.0191041,49.453125 24.960022,49.453125 L28.475647,49.453125 L28.475647,70.546875 L24.960022,70.546875 Z M35.506897,49.453125 L46.053772,49.453125 C47.9928588,49.453125 49.569397,51.0305787 49.569397,52.96875 C49.569397,54.9069213 47.9928588,56.484375 46.053772,56.484375 L35.506897,56.484375 L35.506897,49.453125 Z M35.506897,63.515625 L46.053772,63.515625 C47.9928588,63.515625 49.569397,65.092163 49.569397,67.03125 C49.569397,68.9694213 47.9928588,70.546875 46.053772,70.546875 L35.506897,70.546875 L35.506897,63.515625 Z" id="Shape" fill="#C2E234"></path>
                            </g>
                        </g>
                    </g>
                </g>
            </g>
        </g>
    </g>
</svg>