<?xml version="1.0" encoding="UTF-8"?>
<svg width="120px" height="120px" viewBox="0 0 120 120" version="1.1" xmlns="http://www.w3.org/2000/svg" xmlns:xlink="http://www.w3.org/1999/xlink">
    <title>bitcoin-cash</title>
    <g id="Page-1" stroke="none" stroke-width="1" fill="none" fill-rule="evenodd">
        <g id="stibitsweb1-slide2" transform="translate(-280.000000, -3832.000000)" fill-rule="nonzero">
            <g id="image-copy-2" transform="translate(-215.000000, 3436.000000)">
                <g id="texte" transform="translate(0.000000, 60.000000)">
                    <g id="Group-22">
                        <g id="Group-38" transform="translate(380.000000, 116.000000)">
                            <g id="1-copy-4">
                                <g id="bitcoin-cash" transform="translate(115.000000, 220.000000)">
                                    <path d="M3.515625,120 L116.484375,120 C118.426208,120 120,118.426208 120,116.484375 L120,52.96875 C120,52.0294191 119.624634,51.1294556 118.956299,50.4693605 L98.671875,30.4074096 L98.671875,3.515625 C98.671875,1.57379156 97.0980834,0 95.15625,0 L24.84375,0 C22.9019166,0 21.328125,1.57379156 21.328125,3.515625 L21.328125,37.2280884 L1.30462641,53.4255982 C0.479736328,54.093933 0,55.0982667 0,56.1593627 L0,116.484375 C0,118.426208 1.57379156,120 3.515625,120 Z M12.8686523,112.96875 L53.2855223,77.578125 L66.713562,77.578125 L107.131348,112.96875 L12.8686523,112.96875 Z M98.671875,40.2969361 L111.386719,52.8717042 L98.671875,63.8763427 L98.671875,40.2969361 Z M112.96875,60.8010865 L112.96875,108.734436 L85.4388427,84.628601 L112.96875,60.8010865 Z M28.359375,7.03125 L91.640625,7.03125 L91.640625,69.609375 C91.640625,69.7238159 91.6470338,69.8355103 91.6580201,69.9472045 L80.0985717,79.9520873 L70.3518677,71.4175416 C69.7109986,70.8563231 68.8879395,70.546875 68.0355834,70.546875 L51.9644166,70.546875 C51.1120605,70.546875 50.2890014,70.8563231 49.6481323,71.4175416 L39.9069213,79.9475098 L28.359375,69.9133301 L28.359375,7.03125 Z M21.328125,46.2716674 L21.328125,63.802185 L10.8810424,54.7229004 L21.328125,46.2716674 Z M7.03125,60.6930541 L34.5666504,84.623108 L7.03125,108.734436 L7.03125,60.6930541 Z" id="Shape" fill="#205BA4"></path>
                                    <path d="M45.9375,49.453125 C43.9956666,49.453125 42.421875,51.0269166 42.421875,52.96875 C42.421875,54.9105834 43.9956666,56.484375 45.9375,56.484375 L49.453125,56.484375 L49.453125,60 C49.453125,61.9418334 51.0269166,63.515625 52.96875,63.515625 C54.9105834,63.515625 56.484375,61.9418334 56.484375,60 L56.484375,56.484375 L63.515625,56.484375 L63.515625,60 C63.515625,61.9418334 65.0894166,63.515625 67.03125,63.515625 C68.9730834,63.515625 70.546875,61.9418334 70.546875,60 L70.546875,55.880127 C74.6392823,54.4281005 77.578125,50.52063 77.578125,45.9375 C77.578125,43.2385254 76.557312,40.7739258 74.883728,38.90625 C76.5582277,37.0385742 77.578125,34.5739746 77.578125,31.875 C77.578125,27.29187 74.6392823,23.3843995 70.546875,21.932373 L70.546875,17.8125 C70.546875,15.8706666 68.9730834,14.296875 67.03125,14.296875 C65.0894166,14.296875 63.515625,15.8706666 63.515625,17.8125 L63.515625,21.328125 L56.484375,21.328125 L56.484375,17.8125 C56.484375,15.8706666 54.9105834,14.296875 52.96875,14.296875 C51.0269166,14.296875 49.453125,15.8706666 49.453125,17.8125 L49.453125,21.328125 L45.9375,21.328125 C43.9956666,21.328125 42.421875,22.9019166 42.421875,24.84375 C42.421875,26.7855834 43.9956666,28.359375 45.9375,28.359375 L49.453125,28.359375 L49.453125,49.453125 L45.9375,49.453125 Z M56.484375,28.359375 L67.03125,28.359375 C68.9694213,28.359375 70.546875,29.9368287 70.546875,31.875 C70.546875,33.8131713 68.9694213,35.390625 67.03125,35.390625 L56.484375,35.390625 L56.484375,28.359375 Z M56.484375,42.421875 L67.03125,42.421875 C68.9694213,42.421875 70.546875,43.9993287 70.546875,45.9375 C70.546875,47.8756713 68.9694213,49.453125 67.03125,49.453125 L56.484375,49.453125 L56.484375,42.421875 Z" id="Shape" fill="#BAE300"></path>
                                </g>
                            </g>
                        </g>
                    </g>
                </g>
            </g>
        </g>
    </g>
</svg>