<?xml version="1.0" encoding="UTF-8"?>
<svg width="292px" height="60px" viewBox="0 0 292 60" version="1.1" xmlns="http://www.w3.org/2000/svg" xmlns:xlink="http://www.w3.org/1999/xlink">
    <title>currencies</title>
    <g id="Page-1" stroke="none" stroke-width="1" fill="none" fill-rule="evenodd">
        <g id="stibitsweb1-slide2" transform="translate(-150.000000, -750.000000)">
            <g id="Group-27">
                <g id="Group-4" transform="translate(149.000000, 211.000000)">
                    <g id="Group-14" transform="translate(1.000000, 492.000000)">
                        <g id="currencies" transform="translate(0.000000, 47.000000)">
                            <path d="M8,0 L284,0 C288.418278,-8.11624501e-16 292,3.581722 292,8 L292,52 C292,56.418278 288.418278,60 284,60 L8,60 C3.581722,60 5.41083001e-16,56.418278 0,52 L0,8 C-5.41083001e-16,3.581722 3.581722,8.11624501e-16 8,0 Z" id="Rectangle" fill="#FDFEFE" opacity="0.903644158"></path>
                            <g id="Group-18" transform="translate(16.000000, 10.000000)">
                                <g id="icons-/-logo-/-BTC" fill="#F4A63C">
                                    <g transform="translate(-0.800000, -0.800000)" id="ravencoin-rvn-logo">
                                        <g fill-rule="nonzero">
                                            <path d="M20.5600011,0.4 C9.42593993,0.4 0.4,9.42593993 0.4,20.5600011 C0.4,31.6940622 9.42593993,40.7200022 20.5600011,40.7200022 C31.6940622,40.7200022 40.7200022,31.6940622 40.7200022,20.5600011 C40.7200022,9.42593993 31.6940622,0.4 20.5600011,0.4 Z M20.5600011,1.2 C31.2522344,1.2 39.9200022,9.86776773 39.9200022,20.5600011 C39.9200022,31.2522344 31.2522344,39.9200022 20.5600011,39.9200022 C9.86776773,39.9200022 1.2,31.2522344 1.2,20.5600011 C1.2,9.86776773 9.86776773,1.2 20.5600011,1.2 Z" id="Oval"></path>
                                            <path d="M28.7540021,17.6484466 C29.1202135,15.1266195 27.2563871,13.7709449 24.7078546,12.8665696 L25.5345611,9.45043556 L23.5160865,8.93221134 L22.7112263,12.2583224 C22.1805934,12.1221035 21.635588,11.9935839 21.0940321,11.8662488 L21.9046413,8.51822422 L19.8873166,8 L19.0600352,11.4149495 C18.6208115,11.3118969 18.1896364,11.2100289 17.771109,11.1028305 L17.7734086,11.0921699 L14.989742,10.3761321 L14.4527852,12.597093 C14.4527852,12.597093 15.9504002,12.95067 15.9187807,12.9725835 C16.7362887,13.1828344 16.8840381,13.7401476 16.8593174,14.1819707 L15.9176309,18.0736865 C15.9739711,18.088493 16.0469834,18.1098142 16.1274694,18.1429805 C16.0602061,18.1258051 15.9883436,18.1068529 15.9141815,18.088493 L14.5942107,23.5402117 C14.494178,23.7960664 14.240647,24.1798485 13.6691963,24.0341534 C13.6893178,24.0643585 12.202051,23.6568862 12.202051,23.6568862 L11.2,26.0371641 L13.8267189,26.7117439 C14.3153841,26.8378945 14.7942759,26.9699677 15.2656941,27.0943415 L14.4303641,30.5495644 L16.446539,31.0677887 L17.2738204,27.6492856 C17.8245748,27.8032722 18.3592319,27.9454137 18.8823911,28.0792636 L18.0579842,31.4817758 L20.0764588,32 L20.9117887,28.5512919 C24.3537161,29.2223182 26.9419167,28.9516571 28.0313525,25.7445895 C28.9092251,23.1623522 27.9876601,21.6728278 26.1767246,20.7015275 C27.4955456,20.388224 28.4889731,19.4945093 28.7540021,17.6484466 L28.7540021,17.6484466 Z M24.1421528,24.3107371 C23.5183861,26.8929744 19.2980439,25.4970264 17.9297815,25.1470029 L19.038189,20.5694544 C20.4064515,20.9212546 24.7940896,21.6177479 24.1421528,24.3107371 L24.1421528,24.3107371 Z M24.7664944,17.6111344 C24.1973432,19.9600227 20.6847032,18.7666264 19.545251,18.4740518 L20.5501765,14.3223355 C21.6896287,14.6149101 25.3592165,15.1609703 24.7664944,17.6111344 L24.7664944,17.6111344 Z" id="Shape" transform="translate(20.000000, 20.000000) rotate(-13.000000) translate(-20.000000, -20.000000) "></path>
                                        </g>
                                    </g>
                                </g>
                                <g id="icons-/-logo-/-BCH" transform="translate(44.000000, 0.000000)">
                                    <g transform="translate(-0.800000, -0.800000)" id="ravencoin-rvn-logo">
                                        <g fill-rule="nonzero">
                                            <path d="M20.5600011,0.4 C9.42593993,0.4 0.4,9.42593993 0.4,20.5600011 C0.4,31.6940622 9.42593993,40.7200022 20.5600011,40.7200022 C31.6940622,40.7200022 40.7200022,31.6940622 40.7200022,20.5600011 C40.7200022,9.42593993 31.6940622,0.4 20.5600011,0.4 Z" id="Oval-Copy"></path>
                                            <path d="M20.5600011,0.4 C9.42593993,0.4 0.4,9.42593993 0.4,20.5600011 C0.4,31.6940622 9.42593993,40.7200022 20.5600011,40.7200022 C31.6940622,40.7200022 40.7200022,31.6940622 40.7200022,20.5600011 C40.7200022,9.42593993 31.6940622,0.4 20.5600011,0.4 Z M20.5600011,1.2 C31.2522344,1.2 39.9200022,9.86776773 39.9200022,20.5600011 C39.9200022,31.2522344 31.2522344,39.9200022 20.5600011,39.9200022 C9.86776773,39.9200022 1.2,31.2522344 1.2,20.5600011 C1.2,9.86776773 9.86776773,1.2 20.5600011,1.2 Z" id="Oval" fill="#8ABE50"></path>
                                            <path d="M28.7540021,17.6484466 C29.1202135,15.1266195 27.2563871,13.7709449 24.7078546,12.8665696 L25.5345611,9.45043556 L23.5160865,8.93221134 L22.7112263,12.2583224 C22.1805934,12.1221035 21.635588,11.9935839 21.0940321,11.8662488 L21.9046413,8.51822422 L19.8873166,8 L19.0600352,11.4149495 C18.6208115,11.3118969 18.1896364,11.2100289 17.771109,11.1028305 L17.7734086,11.0921699 L14.989742,10.3761321 L14.4527852,12.597093 C14.4527852,12.597093 15.9504002,12.95067 15.9187807,12.9725835 C16.7362887,13.1828344 16.8840381,13.7401476 16.8593174,14.1819707 L15.9176309,18.0736865 C15.9739711,18.088493 16.0469834,18.1098142 16.1274694,18.1429805 C16.0602061,18.1258051 15.9883436,18.1068529 15.9141815,18.088493 L14.5942107,23.5402117 C14.494178,23.7960664 14.240647,24.1798485 13.6691963,24.0341534 C13.6893178,24.0643585 12.202051,23.6568862 12.202051,23.6568862 L11.2,26.0371641 L13.8267189,26.7117439 C14.3153841,26.8378945 14.7942759,26.9699677 15.2656941,27.0943415 L14.4303641,30.5495644 L16.446539,31.0677887 L17.2738204,27.6492856 C17.8245748,27.8032722 18.3592319,27.9454137 18.8823911,28.0792636 L18.0579842,31.4817758 L20.0764588,32 L20.9117887,28.5512919 C24.3537161,29.2223182 26.9419167,28.9516571 28.0313525,25.7445895 C28.9092251,23.1623522 27.9876601,21.6728278 26.1767246,20.7015275 C27.4955456,20.388224 28.4889731,19.4945093 28.7540021,17.6484466 L28.7540021,17.6484466 Z M24.1421528,24.3107371 C23.5183861,26.8929744 19.2980439,25.4970264 17.9297815,25.1470029 L19.038189,20.5694544 C20.4064515,20.9212546 24.7940896,21.6177479 24.1421528,24.3107371 L24.1421528,24.3107371 Z M24.7664944,17.6111344 C24.1973432,19.9600227 20.6847032,18.7666264 19.545251,18.4740518 L20.5501765,14.3223355 C21.6896287,14.6149101 25.3592165,15.1609703 24.7664944,17.6111344 L24.7664944,17.6111344 Z" id="Shape" fill="#8ABE50"></path>
                                        </g>
                                    </g>
                                </g>
                                <g id="icons-/-logo-/-RVN" transform="translate(88.000000, 0.000000)">
                                    <g transform="translate(-0.800000, -0.800000)" id="ravencoin-rvn-logo">
                                        <g fill-rule="nonzero">
                                            <path d="M20.5600011,0.4 C9.42593993,0.4 0.4,9.42593993 0.4,20.5600011 C0.4,31.6940622 9.42593993,40.7200022 20.5600011,40.7200022 C31.6940622,40.7200022 40.7200022,31.6940622 40.7200022,20.5600011 C40.7200022,9.42593993 31.6940622,0.4 20.5600011,0.4 Z" id="Oval"></path>
                                            <path d="M20.5600011,0.4 C9.42593993,0.4 0.4,9.42593993 0.4,20.5600011 C0.4,31.6940622 9.42593993,40.7200022 20.5600011,40.7200022 C31.6940622,40.7200022 40.7200022,31.6940622 40.7200022,20.5600011 C40.7200022,9.42593993 31.6940622,0.4 20.5600011,0.4 Z M20.5600011,1.2 C31.2522344,1.2 39.9200022,9.86776773 39.9200022,20.5600011 C39.9200022,31.2522344 31.2522344,39.9200022 20.5600011,39.9200022 C9.86776773,39.9200022 1.2,31.2522344 1.2,20.5600011 C1.2,9.86776773 9.86776773,1.2 20.5600011,1.2 Z" id="Oval-Copy" fill="#384182"></path>
                                            <g id="RAven" transform="translate(12.532501, 6.926449)">
                                                <polygon id="Path" fill="#384182" points="-6.05382411e-13 27.2185526 4.46823025 6.48413644 6.97528038 22.0451373"></polygon>
                                                <polygon id="Path" fill="#384182" points="4.55468025 6.36557644 11.3434756 22.0611923 7.09137039 21.9870923 4.55468025 6.36434144"></polygon>
                                                <polygon id="Path" fill="#F05239" points="4.65595026 6.24701643 13.5479507 7.5104215 11.4879706 22.0611923 4.65595026 6.24701643"></polygon>
                                                <polygon id="Path" fill="#384182" points="11.6460506 21.8376573 13.6504558 7.64380151 14.9620258 9.3085816 11.6460506 21.8376573"></polygon>
                                                <polygon id="Path" fill="#F79433" points="13.5195457 7.37580649 4.84243527 6.14204143 12.6550457 3.57077128"></polygon>
                                                <polygon id="Path" fill="#384182" points="4.80044526 6.00866142 10.1183556 2.32218622 12.6550457 3.43739128"></polygon>
                                                <polygon id="Path" fill="#F05239" points="4.66953526 5.96420142 5.69458531 4.00178631 10.0319056 2.26290621 4.66953526 5.96420142"></polygon>
                                                <polygon id="Path" fill="#384182" points="5.69458531 3.9141013 6.18364534 2.38270122 9.75773554 2.26290621 5.69458531 3.9128663"></polygon>
                                                <polygon id="Path" fill="#F05239" points="6.15524034 2.26290621 7.3074954 1.02914114 9.78737554 2.14434621 6.15524034 2.26290621"></polygon>
                                                <polygon id="Path" fill="#F05239" points="7.38036041 0.95504114 9.1093605 0.107831094 11.3447106 2.72356124 7.38036041 0.95504114"></polygon>
                                                <polygon id="Path" fill="#F79433" points="9.35512551 0.2115711 11.9350407 1.34159616 11.4731506 2.73838124 9.35512551 0.2115711"></polygon>
                                                <polygon id="Path" fill="#F05239" points="11.5596006 2.78284124 12.0350757 1.35641616 12.6118207 3.31883127 11.5596006 2.78284124"></polygon>
                                                <path d="M9.1674055,0.0485510906 L11.0557206,0.0485510906 L11.9906157,1.08842115 C12.0084543,1.10907997 12.0098811,1.13924917 11.9940718,1.16149933 C11.9782625,1.18374949 11.9493037,1.19232895 11.9239257,1.18228115 L9.1674055,0.0485510906 Z" id="Path" fill="#F05239"></path>
                                                <path d="M12.1511657,1.23785616 L15.9920159,2.30983622 C16.0319665,2.31945421 16.0601233,2.35519417 16.0601233,2.39628622 C16.0601233,2.43737827 16.0319665,2.47311823 15.9920159,2.48273622 L12.7279107,3.37811127 L12.1511657,1.23785616 L12.1511657,1.23785616 Z" id="Path" fill="#F79433"></path>
                                            </g>
                                        </g>
                                    </g>
                                </g>
                                <g id="icons-/-logo-/ethereum" opacity="0.5" transform="translate(132.000000, 0.000000)">
                                    <g id="ethereum" stroke-width="1" fill-rule="evenodd" transform="translate(12.800000, 7.200000)" fill="#485563">
                                        <path d="M14.4667053,13.7593323 L7.23325195,26.4 L1.73727699e-13,13.7593323 L7.23325195,17.2003235 L14.4667053,13.7593323 Z M7.23325195,9.86434938 L13.1367554,12.6557739 L7.23325195,15.4520325 L1.33961793,12.6604065 L7.23325195,9.86434938 Z M7.23325195,1.56319402e-14 L13.6789673,11.195105 L7.23325195,8.146875 L0.780285619,11.2079956 L7.23325195,1.56319402e-14 Z" id="Combined-Shape" fill-rule="nonzero"></path>
                                    </g>
                                    <path d="M20.1600011,0 C9.02593993,0 0,9.02593993 0,20.1600011 C0,31.2940622 9.02593993,40.3200022 20.1600011,40.3200022 C31.2940622,40.3200022 40.3200022,31.2940622 40.3200022,20.1600011 C40.3200022,9.02593993 31.2940622,0 20.1600011,0 Z M20.1600011,0.8 C30.8522344,0.8 39.5200022,9.46776773 39.5200022,20.1600011 C39.5200022,30.8522344 30.8522344,39.5200022 20.1600011,39.5200022 C9.46776773,39.5200022 0.8,30.8522344 0.8,20.1600011 C0.8,9.46776773 9.46776773,0.8 20.1600011,0.8 Z" id="Oval" fill="#9EA4B3" fill-rule="nonzero"></path>
                                </g>
                                <g id="icons-/-logo-/tether" opacity="0.5" transform="translate(176.000000, 0.000000)" fill-rule="nonzero">
                                    <path d="M20.1600011,0 C9.02593993,0 0,9.02593993 0,20.1600011 C0,31.2940622 9.02593993,40.3200022 20.1600011,40.3200022 C31.2940622,40.3200022 40.3200022,31.2940622 40.3200022,20.1600011 C40.3200022,9.02593993 31.2940622,0 20.1600011,0 Z M20.1600011,0.8 C30.8522344,0.8 39.5200022,9.46776773 39.5200022,20.1600011 C39.5200022,30.8522344 30.8522344,39.5200022 20.1600011,39.5200022 C9.46776773,39.5200022 0.8,30.8522344 0.8,20.1600011 C0.8,9.46776773 9.46776773,0.8 20.1600011,0.8 Z" id="Oval" fill="#9EA4B3"></path>
                                    <path d="M21.7115884,17.3188898 L21.7115884,15.2375565 L26.6122853,15.2375565 L26.6122853,12 L13.2233999,12 L13.2233999,15.2375201 L18.1237319,15.2375201 L18.1237319,17.3268793 C14.1653645,17.5292813 11.2,18.358772 11.2,19.3514466 C11.2,20.3440847 14.1653645,21.1735754 18.1237319,21.3760139 L18.1237319,27.8621081 C18.7298435,27.9860009 19.357297,28.0507929 20,28.0507929 C20.5847696,28.0507929 21.1569529,27.9970549 21.7115884,27.8941393 L21.7115884,21.3840035 C25.7522957,21.1964496 28.8,20.357802 28.8,19.3514466 C28.8,18.3450913 25.7522957,17.5064436 21.7115884,17.3188898 Z M20,20.6307601 C15.5845499,20.6307601 12.0051207,19.9655842 12.0051207,19.1448492 C12.0051207,18.4442128 14.613655,17.8567801 18.1237684,17.70009 L18.1237684,20.0799187 C18.7188259,20.1656879 19.3184437,20.2087731 19.9176967,20.2087731 C20.5173144,20.2087731 21.1169322,20.1656879 21.7116249,20.0799187 L21.7116249,17.69283 C25.3044429,17.8388309 27.9945509,18.4331223 27.9945509,19.1448127 C27.9945509,19.9655477 24.4150488,20.6307601 20,20.6307601 Z" id="Shape" fill="#485563"></path>
                                </g>
                                <g id="icons-/-logo-/xrp" opacity="0.5" transform="translate(220.000000, 0.000000)">
                                    <path d="M20.1600011,0 C9.02593993,0 0,9.02593993 0,20.1600011 C0,31.2940622 9.02593993,40.3200022 20.1600011,40.3200022 C31.2940622,40.3200022 40.3200022,31.2940622 40.3200022,20.1600011 C40.3200022,9.02593993 31.2940622,0 20.1600011,0 Z M20.1600011,0.8 C30.8522344,0.8 39.5200022,9.46776773 39.5200022,20.1600011 C39.5200022,30.8522344 30.8522344,39.5200022 20.1600011,39.5200022 C9.46776773,39.5200022 0.8,30.8522344 0.8,20.1600011 C0.8,9.46776773 9.46776773,0.8 20.1600011,0.8 Z" id="Oval" fill="#9EA4B3" fill-rule="nonzero"></path>
                                    <g id="xrp" stroke-width="1" fill-rule="evenodd" transform="translate(12.800000, 12.000000)" fill="#485563">
                                        <g id="Group" transform="translate(0.593750, 0.608173)" fill-rule="nonzero">
                                            <path d="M6.79092548,7.88852163 C8.76075721,7.88852163 10.5259615,9.61784856 13.1990385,12.4659856 C14.0792026,13.4307485 13.2849498,14.7587089 12.1476273,14.774932 L12.0245192,14.7715745 C12.0243389,14.7715745 12.0242187,14.7715745 12.0241587,14.7715745 C11.575,14.7715745 11.365625,14.5483774 11.1630409,14.332512 C9.94963942,13.0396635 7.69098558,10.633113 6.79092548,10.633113 C5.89086538,10.633113 3.63215144,13.0396034 2.4188101,14.332512 C1.90114183,14.8841346 1.0234976,14.9192308 0.462319712,14.4106971 C0.187680288,14.1616587 0.0282451923,13.8219351 0.0134014423,13.4539663 C-0.00144230769,13.0864784 0.129747596,12.7355769 0.3828125,12.4659856 C3.05588942,9.61784856 4.82109375,7.88852163 6.79092548,7.88852163 Z M13.1194712,0.372896635 C13.3941106,0.621875 13.5535457,0.961598558 13.5683894,1.32956731 C13.5832332,1.69705529 13.4520433,2.04795673 13.1989784,2.31760817 C10.5259615,5.16574519 8.76075721,6.89507212 6.79086538,6.89507212 C4.82097356,6.89507212 3.05576923,5.16574519 0.382752404,2.31760817 C0.1296875,2.04795673 -0.00150240385,1.69705529 0.0133413462,1.32956731 C0.0282451923,0.961598558 0.187620192,0.621875 0.462199519,0.372956731 C1.0233774,-0.135697115 1.90108173,-0.100540865 2.41875,0.451081731 C3.63215144,1.74393029 5.89074519,4.15048077 6.79086538,4.15048077 C7.69098558,4.15048077 9.94963942,1.74399038 11.1629808,0.451081731 C11.6807091,-0.100540865 12.5583534,-0.135576923 13.1194712,0.372896635 Z" id="Combined-Shape"></path>
                                        </g>
                                    </g>
                                </g>
                            </g>
                        </g>
                    </g>
                </g>
            </g>
        </g>
    </g>
</svg>