<?xml version="1.0" encoding="UTF-8"?>
<svg width="128px" height="200px" viewBox="0 0 128 200" version="1.1" xmlns="http://www.w3.org/2000/svg" xmlns:xlink="http://www.w3.org/1999/xlink">
    <title>DOTS</title>
    <g id="Page-1" stroke="none" stroke-width="1" fill="none" fill-rule="evenodd" opacity="0.412795123">
        <g id="stibitsweb1" transform="translate(-116.000000, -1030.000000)" fill="#FFFFFF">
            <g id="bloc-badge-copy-2" transform="translate(-5.000000, 858.000000)">
                <g id="Group-20" transform="translate(121.000000, 172.000000)">
                    <g id="DOTS">
                        <path d="M124.875339,194.708521 C126.346295,194.708521 127.536232,195.89217 127.536232,197.353169 C127.536232,198.816351 126.346295,200 124.875339,200 C123.406579,200 122.216642,198.816351 122.216642,197.353169 C122.216642,195.89217 123.406579,194.708521 124.875339,194.708521 Z M111.297542,194.708521 C112.766302,194.708521 113.956239,195.89217 113.956239,197.353169 C113.956239,198.816351 112.766302,200 111.297542,200 C109.828782,200 108.636649,198.816351 108.636649,197.353169 C108.636649,195.89217 109.828782,194.708521 111.297542,194.708521 Z M97.7173295,194.708521 C99.1860895,194.708521 100.378222,195.89217 100.378222,197.353169 C100.378222,198.816351 99.1860895,200 97.7173295,200 C96.2485695,200 95.0564369,198.816351 95.0564369,197.353169 C95.0564369,195.89217 96.2485695,194.708521 97.7173295,194.708521 Z M84.1373367,194.708521 C85.6060967,194.708521 86.7982293,195.89217 86.7982293,197.353169 C86.7982293,198.816351 85.6060967,200 84.1373367,200 C82.6685767,200 81.4786395,198.816351 81.4786395,197.353169 C81.4786395,195.89217 82.6685767,194.708521 84.1373367,194.708521 Z M70.5593198,194.708521 C72.0280798,194.708521 73.218017,195.89217 73.218017,197.353169 C73.218017,198.816351 72.0280798,200 70.5593198,200 C69.0883643,200 67.8984272,198.816351 67.8984272,197.353169 C67.8984272,195.89217 69.0883643,194.708521 70.5593198,194.708521 Z M56.979327,194.708521 C58.448087,194.708521 59.6402196,195.89217 59.6402196,197.353169 C59.6402196,198.816351 58.448087,200 56.979327,200 C55.510567,200 54.3184344,198.816351 54.3184344,197.353169 C54.3184344,195.89217 55.510567,194.708521 56.979327,194.708521 Z M29.8191218,194.708521 C31.2900773,194.708521 32.4800144,195.89217 32.4800144,197.353169 C32.4800144,198.816351 31.2900773,200 29.8191218,200 C28.3503618,200 27.1604247,198.816351 27.1604247,197.353169 C27.1604247,195.89217 28.3503618,194.708521 29.8191218,194.708521 Z M2.66089257,194.708521 C4.12965261,194.708521 5.32178519,195.89217 5.32178519,197.353169 C5.32178519,198.816351 4.12965261,200 2.66089257,200 C1.19213254,200 -4.4199397e-08,198.816351 -4.4199397e-08,197.353169 C-4.4199397e-08,195.89217 1.19213254,194.708521 2.66089257,194.708521 Z M16.2411049,194.708521 C17.709865,194.708521 18.8998021,195.89217 18.8998021,197.353169 C18.8998021,198.816351 17.709865,200 16.2411049,200 C14.7723449,200 13.5802123,198.816351 13.5802123,197.353169 C13.5802123,195.89217 14.7723449,194.708521 16.2411049,194.708521 Z M43.3991146,194.708521 C44.8678747,194.708521 46.0600073,195.89217 46.0600073,197.353169 C46.0600073,198.816351 44.8678747,200 43.3991146,200 C41.9303546,200 40.7404175,198.816351 40.7404175,197.353169 C40.7404175,195.89217 41.9303546,194.708521 43.3991146,194.708521 Z M56.979327,180.800208 C58.448087,180.800208 59.6402196,181.983857 59.6402196,183.447039 C59.6402196,184.908038 58.448087,186.091687 56.979327,186.091687 C55.510567,186.091687 54.3184344,184.908038 54.3184344,183.447039 C54.3184344,181.983857 55.510567,180.800208 56.979327,180.800208 Z M124.875339,180.800208 C126.346295,180.800208 127.536232,181.983857 127.536232,183.447039 C127.536232,184.908038 126.346295,186.091687 124.875339,186.091687 C123.406579,186.091687 122.216642,184.908038 122.216642,183.447039 C122.216642,181.983857 123.406579,180.800208 124.875339,180.800208 Z M29.8191218,180.800208 C31.2900773,180.800208 32.4800144,181.983857 32.4800144,183.447039 C32.4800144,184.908038 31.2900773,186.091687 29.8191218,186.091687 C28.3503618,186.091687 27.1604247,184.908038 27.1604247,183.447039 C27.1604247,181.983857 28.3503618,180.800208 29.8191218,180.800208 Z M43.3991146,180.800208 C44.8678747,180.800208 46.0600073,181.983857 46.0600073,183.447039 C46.0600073,184.908038 44.8678747,186.091687 43.3991146,186.091687 C41.9303546,186.091687 40.7404175,184.908038 40.7404175,183.447039 C40.7404175,181.983857 41.9303546,180.800208 43.3991146,180.800208 Z M97.7173295,180.800208 C99.1860895,180.800208 100.378222,181.983857 100.378222,183.447039 C100.378222,184.908038 99.1860895,186.091687 97.7173295,186.091687 C96.2485695,186.091687 95.0564369,184.908038 95.0564369,183.447039 C95.0564369,181.983857 96.2485695,180.800208 97.7173295,180.800208 Z M2.66089257,180.800208 C4.12965261,180.800208 5.32178519,181.983857 5.32178519,183.447039 C5.32178519,184.908038 4.12965261,186.091687 2.66089257,186.091687 C1.19213254,186.091687 -4.4199397e-08,184.908038 -4.4199397e-08,183.447039 C-4.4199397e-08,181.983857 1.19213254,180.800208 2.66089257,180.800208 Z M16.2411049,180.800208 C17.709865,180.800208 18.8998021,181.983857 18.8998021,183.447039 C18.8998021,184.908038 17.709865,186.091687 16.2411049,186.091687 C14.7723449,186.091687 13.5802123,184.908038 13.5802123,183.447039 C13.5802123,181.983857 14.7723449,180.800208 16.2411049,180.800208 Z M70.5593198,180.800208 C72.0280798,180.800208 73.218017,181.983857 73.218017,183.447039 C73.218017,184.908038 72.0280798,186.091687 70.5593198,186.091687 C69.0883643,186.091687 67.8984272,184.908038 67.8984272,183.447039 C67.8984272,181.983857 69.0883643,180.800208 70.5593198,180.800208 Z M111.297542,180.800208 C112.766302,180.800208 113.956239,181.983857 113.956239,183.447039 C113.956239,184.908038 112.766302,186.091687 111.297542,186.091687 C109.828782,186.091687 108.636649,184.908038 108.636649,183.447039 C108.636649,181.983857 109.828782,180.800208 111.297542,180.800208 Z M84.1373367,180.800208 C85.6060967,180.800208 86.7982293,181.983857 86.7982293,183.447039 C86.7982293,184.908038 85.6060967,186.091687 84.1373367,186.091687 C82.6685767,186.091687 81.4786395,184.908038 81.4786395,183.447039 C81.4786395,181.983857 82.6685767,180.800208 84.1373367,180.800208 Z M111.297542,166.892113 C112.766302,166.892113 113.956239,168.077946 113.956239,169.538945 C113.956239,170.999943 112.766302,172.183592 111.297542,172.183592 C109.828782,172.183592 108.636649,170.999943 108.636649,169.538945 C108.636649,168.077946 109.828782,166.892113 111.297542,166.892113 Z M124.875339,166.892113 C126.346295,166.892113 127.536232,168.077946 127.536232,169.538945 C127.536232,170.999943 126.346295,172.183592 124.875339,172.183592 C123.406579,172.183592 122.216642,170.999943 122.216642,169.538945 C122.216642,168.077946 123.406579,166.892113 124.875339,166.892113 Z M56.979327,166.892113 C58.448087,166.892113 59.6402196,168.077946 59.6402196,169.538945 C59.6402196,170.999943 58.448087,172.183592 56.979327,172.183592 C55.510567,172.183592 54.3184344,170.999943 54.3184344,169.538945 C54.3184344,168.077946 55.510567,166.892113 56.979327,166.892113 Z M70.5593198,166.892113 C72.0280798,166.892113 73.218017,168.077946 73.218017,169.538945 C73.218017,170.999943 72.0280798,172.183592 70.5593198,172.183592 C69.0883643,172.183592 67.8984272,170.999943 67.8984272,169.538945 C67.8984272,168.077946 69.0883643,166.892113 70.5593198,166.892113 Z M84.1373367,166.892113 C85.6060967,166.892113 86.7982293,168.077946 86.7982293,169.538945 C86.7982293,170.999943 85.6060967,172.183592 84.1373367,172.183592 C82.6685767,172.183592 81.4786395,170.999943 81.4786395,169.538945 C81.4786395,168.077946 82.6685767,166.892113 84.1373367,166.892113 Z M97.7173295,166.892113 C99.1860895,166.892113 100.378222,168.077946 100.378222,169.538945 C100.378222,170.999943 99.1860895,172.183592 97.7173295,172.183592 C96.2485695,172.183592 95.0564369,170.999943 95.0564369,169.538945 C95.0564369,168.077946 96.2485695,166.892113 97.7173295,166.892113 Z M43.3991146,166.892113 C44.8678747,166.892113 46.0600073,168.077946 46.0600073,169.538945 C46.0600073,170.999943 44.8678747,172.183592 43.3991146,172.183592 C41.9303546,172.183592 40.7404175,170.999943 40.7404175,169.538945 C40.7404175,168.077946 41.9303546,166.892113 43.3991146,166.892113 Z M16.2411049,166.892113 C17.709865,166.892113 18.8998021,168.077946 18.8998021,169.538945 C18.8998021,170.999943 17.709865,172.183592 16.2411049,172.183592 C14.7723449,172.183592 13.5802123,170.999943 13.5802123,169.538945 C13.5802123,168.077946 14.7723449,166.892113 16.2411049,166.892113 Z M2.66089257,166.892113 C4.12965261,166.892113 5.32178519,168.077946 5.32178519,169.538945 C5.32178519,170.999943 4.12965261,172.183592 2.66089257,172.183592 C1.19213254,172.183592 -4.4199397e-08,170.999943 -4.4199397e-08,169.538945 C-4.4199397e-08,168.077946 1.19213254,166.892113 2.66089257,166.892113 Z M29.8191218,166.892113 C31.2900773,166.892113 32.4800144,168.077946 32.4800144,169.538945 C32.4800144,170.999943 31.2900773,172.183592 29.8191218,172.183592 C28.3503618,172.183592 27.1604247,170.999943 27.1604247,169.538945 C27.1604247,168.077946 28.3503618,166.892113 29.8191218,166.892113 Z M97.7173295,152.984892 C99.1860895,152.984892 100.378222,154.168541 100.378222,155.631724 C100.378222,157.092722 99.1860895,158.276371 97.7173295,158.276371 C96.2485695,158.276371 95.0564369,157.092722 95.0564369,155.631724 C95.0564369,154.168541 96.2485695,152.984892 97.7173295,152.984892 Z M84.1373367,152.984892 C85.6060967,152.984892 86.7982293,154.168541 86.7982293,155.631724 C86.7982293,157.092722 85.6060967,158.276371 84.1373367,158.276371 C82.6685767,158.276371 81.4786395,157.092722 81.4786395,155.631724 C81.4786395,154.168541 82.6685767,152.984892 84.1373367,152.984892 Z M70.5593198,152.984892 C72.0280798,152.984892 73.218017,154.168541 73.218017,155.631724 C73.218017,157.092722 72.0280798,158.276371 70.5593198,158.276371 C69.0883643,158.276371 67.8984272,157.092722 67.8984272,155.631724 C67.8984272,154.168541 69.0883643,152.984892 70.5593198,152.984892 Z M56.979327,152.984892 C58.448087,152.984892 59.6402196,154.168541 59.6402196,155.631724 C59.6402196,157.092722 58.448087,158.276371 56.979327,158.276371 C55.510567,158.276371 54.3184344,157.092722 54.3184344,155.631724 C54.3184344,154.168541 55.510567,152.984892 56.979327,152.984892 Z M111.297542,152.984892 C112.766302,152.984892 113.956239,154.168541 113.956239,155.631724 C113.956239,157.092722 112.766302,158.276371 111.297542,158.276371 C109.828782,158.276371 108.636649,157.092722 108.636649,155.631724 C108.636649,154.168541 109.828782,152.984892 111.297542,152.984892 Z M124.875339,152.984892 C126.346295,152.984892 127.536232,154.168541 127.536232,155.631724 C127.536232,157.092722 126.346295,158.276371 124.875339,158.276371 C123.406579,158.276371 122.216642,157.092722 122.216642,155.631724 C122.216642,154.168541 123.406579,152.984892 124.875339,152.984892 Z M2.66089257,152.984892 C4.12965261,152.984892 5.32178519,154.168541 5.32178519,155.631724 C5.32178519,157.092722 4.12965261,158.276371 2.66089257,158.276371 C1.19213254,158.276371 -4.4199397e-08,157.092722 -4.4199397e-08,155.631724 C-4.4199397e-08,154.168541 1.19213254,152.984892 2.66089257,152.984892 Z M16.2411049,152.984892 C17.709865,152.984892 18.8998021,154.168541 18.8998021,155.631724 C18.8998021,157.092722 17.709865,158.276371 16.2411049,158.276371 C14.7723449,158.276371 13.5802123,157.092722 13.5802123,155.631724 C13.5802123,154.168541 14.7723449,152.984892 16.2411049,152.984892 Z M43.3991146,152.984892 C44.8678747,152.984892 46.0600073,154.168541 46.0600073,155.631724 C46.0600073,157.092722 44.8678747,158.276371 43.3991146,158.276371 C41.9303546,158.276371 40.7404175,157.092722 40.7404175,155.631724 C40.7404175,154.168541 41.9303546,152.984892 43.3991146,152.984892 Z M29.8191218,152.984892 C31.2900773,152.984892 32.4800144,154.168541 32.4800144,155.631724 C32.4800144,157.092722 31.2900773,158.276371 29.8191218,158.276371 C28.3503618,158.276371 27.1604247,157.092722 27.1604247,155.631724 C27.1604247,154.168541 28.3503618,152.984892 29.8191218,152.984892 Z M124.875339,139.076797 C126.346295,139.076797 127.536232,140.26263 127.536232,141.723629 C127.536232,143.184627 126.346295,144.368276 124.875339,144.368276 C123.406579,144.368276 122.216642,143.184627 122.216642,141.723629 C122.216642,140.26263 123.406579,139.076797 124.875339,139.076797 Z M84.1373367,139.076797 C85.6060967,139.076797 86.7982293,140.26263 86.7982293,141.723629 C86.7982293,143.184627 85.6060967,144.368276 84.1373367,144.368276 C82.6685767,144.368276 81.4786395,143.184627 81.4786395,141.723629 C81.4786395,140.26263 82.6685767,139.076797 84.1373367,139.076797 Z M70.5593198,139.076797 C72.0280798,139.076797 73.218017,140.26263 73.218017,141.723629 C73.218017,143.184627 72.0280798,144.368276 70.5593198,144.368276 C69.0883643,144.368276 67.8984272,143.184627 67.8984272,141.723629 C67.8984272,140.26263 69.0883643,139.076797 70.5593198,139.076797 Z M56.979327,139.076797 C58.448087,139.076797 59.6402196,140.26263 59.6402196,141.723629 C59.6402196,143.184627 58.448087,144.368276 56.979327,144.368276 C55.510567,144.368276 54.3184344,143.184627 54.3184344,141.723629 C54.3184344,140.26263 55.510567,139.076797 56.979327,139.076797 Z M111.297542,139.076797 C112.766302,139.076797 113.956239,140.26263 113.956239,141.723629 C113.956239,143.184627 112.766302,144.368276 111.297542,144.368276 C109.828782,144.368276 108.636649,143.184627 108.636649,141.723629 C108.636649,140.26263 109.828782,139.076797 111.297542,139.076797 Z M97.7173295,139.076797 C99.1860895,139.076797 100.378222,140.26263 100.378222,141.723629 C100.378222,143.184627 99.1860895,144.368276 97.7173295,144.368276 C96.2485695,144.368276 95.0564369,143.184627 95.0564369,141.723629 C95.0564369,140.26263 96.2485695,139.076797 97.7173295,139.076797 Z M29.8191218,139.076797 C31.2900773,139.076797 32.4800144,140.26263 32.4800144,141.723629 C32.4800144,143.184627 31.2900773,144.368276 29.8191218,144.368276 C28.3503618,144.368276 27.1604247,143.184627 27.1604247,141.723629 C27.1604247,140.26263 28.3503618,139.076797 29.8191218,139.076797 Z M16.2411049,139.076797 C17.709865,139.076797 18.8998021,140.26263 18.8998021,141.723629 C18.8998021,143.184627 17.709865,144.368276 16.2411049,144.368276 C14.7723449,144.368276 13.5802123,143.184627 13.5802123,141.723629 C13.5802123,140.26263 14.7723449,139.076797 16.2411049,139.076797 Z M2.66089257,139.076797 C4.12965261,139.076797 5.32178519,140.26263 5.32178519,141.723629 C5.32178519,143.184627 4.12965261,144.368276 2.66089257,144.368276 C1.19213254,144.368276 -4.41999077e-08,143.184627 -4.41999077e-08,141.723629 C-4.41999077e-08,140.26263 1.19213254,139.076797 2.66089257,139.076797 Z M43.3991146,139.076797 C44.8678747,139.076797 46.0600073,140.26263 46.0600073,141.723629 C46.0600073,143.184627 44.8678747,144.368276 43.3991146,144.368276 C41.9303546,144.368276 40.7404175,143.184627 40.7404175,141.723629 C40.7404175,140.26263 41.9303546,139.076797 43.3991146,139.076797 Z M2.66089257,125.169576 C4.12965261,125.169576 5.32178519,126.353225 5.32178519,127.816408 C5.32178519,129.277406 4.12965261,130.461055 2.66089257,130.461055 C1.19213254,130.461055 -4.41999077e-08,129.277406 -4.41999077e-08,127.816408 C-4.41999077e-08,126.353225 1.19213254,125.169576 2.66089257,125.169576 Z M16.2411049,125.169576 C17.709865,125.169576 18.8998021,126.353225 18.8998021,127.816408 C18.8998021,129.277406 17.709865,130.461055 16.2411049,130.461055 C14.7723449,130.461055 13.5802123,129.277406 13.5802123,127.816408 C13.5802123,126.353225 14.7723449,125.169576 16.2411049,125.169576 Z M43.3991146,125.169576 C44.8678747,125.169576 46.0600073,126.353225 46.0600073,127.816408 C46.0600073,129.277406 44.8678747,130.461055 43.3991146,130.461055 C41.9303546,130.461055 40.7404175,129.277406 40.7404175,127.816408 C40.7404175,126.353225 41.9303546,125.169576 43.3991146,125.169576 Z M29.8191218,125.169576 C31.2900773,125.169576 32.4800144,126.353225 32.4800144,127.816408 C32.4800144,129.277406 31.2900773,130.461055 29.8191218,130.461055 C28.3503618,130.461055 27.1604247,129.277406 27.1604247,127.816408 C27.1604247,126.353225 28.3503618,125.169576 29.8191218,125.169576 Z M56.979327,125.169576 C58.448087,125.169576 59.6402196,126.353225 59.6402196,127.816408 C59.6402196,129.277406 58.448087,130.461055 56.979327,130.461055 C55.510567,130.461055 54.3184344,129.277406 54.3184344,127.816408 C54.3184344,126.353225 55.510567,125.169576 56.979327,125.169576 Z M70.5593198,125.169576 C72.0280798,125.169576 73.218017,126.353225 73.218017,127.816408 C73.218017,129.277406 72.0280798,130.461055 70.5593198,130.461055 C69.0883643,130.461055 67.8984272,129.277406 67.8984272,127.816408 C67.8984272,126.353225 69.0883643,125.169576 70.5593198,125.169576 Z M84.1373367,125.169576 C85.6060967,125.169576 86.7982293,126.353225 86.7982293,127.816408 C86.7982293,129.277406 85.6060967,130.461055 84.1373367,130.461055 C82.6685767,130.461055 81.4786395,129.277406 81.4786395,127.816408 C81.4786395,126.353225 82.6685767,125.169576 84.1373367,125.169576 Z M97.7173295,125.169576 C99.1860895,125.169576 100.378222,126.353225 100.378222,127.816408 C100.378222,129.277406 99.1860895,130.461055 97.7173295,130.461055 C96.2485695,130.461055 95.0564369,129.277406 95.0564369,127.816408 C95.0564369,126.353225 96.2485695,125.169576 97.7173295,125.169576 Z M111.297542,125.169576 C112.766302,125.169576 113.956239,126.353225 113.956239,127.816408 C113.956239,129.277406 112.766302,130.461055 111.297542,130.461055 C109.828782,130.461055 108.636649,129.277406 108.636649,127.816408 C108.636649,126.353225 109.828782,125.169576 111.297542,125.169576 Z M124.875339,125.169576 C126.346295,125.169576 127.536232,126.353225 127.536232,127.816408 C127.536232,129.277406 126.346295,130.461055 124.875339,130.461055 C123.406579,130.461055 122.216642,129.277406 122.216642,127.816408 C122.216642,126.353225 123.406579,125.169576 124.875339,125.169576 Z M2.66089257,111.261263 C4.12965261,111.261263 5.32178519,112.447096 5.32178519,113.908095 C5.32178519,115.369093 4.12965261,116.552742 2.66089257,116.552742 C1.19213254,116.552742 -4.41999077e-08,115.369093 -4.41999077e-08,113.908095 C-4.41999077e-08,112.447096 1.19213254,111.261263 2.66089257,111.261263 Z M16.2411049,111.261263 C17.709865,111.261263 18.8998021,112.447096 18.8998021,113.908095 C18.8998021,115.369093 17.709865,116.552742 16.2411049,116.552742 C14.7723449,116.552742 13.5802123,115.369093 13.5802123,113.908095 C13.5802123,112.447096 14.7723449,111.261263 16.2411049,111.261263 Z M43.3991146,111.261263 C44.8678747,111.261263 46.0600073,112.447096 46.0600073,113.908095 C46.0600073,115.369093 44.8678747,116.552742 43.3991146,116.552742 C41.9303546,116.552742 40.7404175,115.369093 40.7404175,113.908095 C40.7404175,112.447096 41.9303546,111.261263 43.3991146,111.261263 Z M29.8191218,111.261263 C31.2900773,111.261263 32.4800144,112.447096 32.4800144,113.908095 C32.4800144,115.369093 31.2900773,116.552742 29.8191218,116.552742 C28.3503618,116.552742 27.1604247,115.369093 27.1604247,113.908095 C27.1604247,112.447096 28.3503618,111.261263 29.8191218,111.261263 Z M56.979327,111.261263 C58.448087,111.261263 59.6402196,112.447096 59.6402196,113.908095 C59.6402196,115.369093 58.448087,116.552742 56.979327,116.552742 C55.510567,116.552742 54.3184344,115.369093 54.3184344,113.908095 C54.3184344,112.447096 55.510567,111.261263 56.979327,111.261263 Z M84.1373367,111.261263 C85.6060967,111.261263 86.7982293,112.447096 86.7982293,113.908095 C86.7982293,115.369093 85.6060967,116.552742 84.1373367,116.552742 C82.6685767,116.552742 81.4786395,115.369093 81.4786395,113.908095 C81.4786395,112.447096 82.6685767,111.261263 84.1373367,111.261263 Z M97.7173295,111.261263 C99.1860895,111.261263 100.378222,112.447096 100.378222,113.908095 C100.378222,115.369093 99.1860895,116.552742 97.7173295,116.552742 C96.2485695,116.552742 95.0564369,115.369093 95.0564369,113.908095 C95.0564369,112.447096 96.2485695,111.261263 97.7173295,111.261263 Z M111.297542,111.261263 C112.766302,111.261263 113.956239,112.447096 113.956239,113.908095 C113.956239,115.369093 112.766302,116.552742 111.297542,116.552742 C109.828782,116.552742 108.636649,115.369093 108.636649,113.908095 C108.636649,112.447096 109.828782,111.261263 111.297542,111.261263 Z M124.875339,111.261263 C126.346295,111.261263 127.536232,112.447096 127.536232,113.908095 C127.536232,115.369093 126.346295,116.552742 124.875339,116.552742 C123.406579,116.552742 122.216642,115.369093 122.216642,113.908095 C122.216642,112.447096 123.406579,111.261263 124.875339,111.261263 Z M70.5593198,111.261263 C72.0280798,111.261263 73.218017,112.447096 73.218017,113.908095 C73.218017,115.369093 72.0280798,116.552742 70.5593198,116.552742 C69.0883643,116.552742 67.8984272,115.369093 67.8984272,113.908095 C67.8984272,112.447096 69.0883643,111.261263 70.5593198,111.261263 Z M16.2411049,97.3542605 C17.709865,97.3542605 18.8998021,98.5379095 18.8998021,99.9989081 C18.8998021,101.46209 17.709865,102.64574 16.2411049,102.64574 C14.7723449,102.64574 13.5802123,101.46209 13.5802123,99.9989081 C13.5802123,98.5379095 14.7723449,97.3542605 16.2411049,97.3542605 Z M2.66089257,97.3542605 C4.12965261,97.3542605 5.32178519,98.5379095 5.32178519,99.9989081 C5.32178519,101.46209 4.12965261,102.64574 2.66089257,102.64574 C1.19213254,102.64574 -4.4199397e-08,101.46209 -4.4199397e-08,99.9989081 C-4.4199397e-08,98.5379095 1.19213254,97.3542605 2.66089257,97.3542605 Z M111.297542,97.3542605 C112.766302,97.3542605 113.956239,98.5379095 113.956239,99.9989081 C113.956239,101.46209 112.766302,102.64574 111.297542,102.64574 C109.828782,102.64574 108.636649,101.46209 108.636649,99.9989081 C108.636649,98.5379095 109.828782,97.3542605 111.297542,97.3542605 Z M84.1373367,97.3542605 C85.6060967,97.3542605 86.7982293,98.5379095 86.7982293,99.9989081 C86.7982293,101.46209 85.6060967,102.64574 84.1373367,102.64574 C82.6685767,102.64574 81.4786395,101.46209 81.4786395,99.9989081 C81.4786395,98.5379095 82.6685767,97.3542605 84.1373367,97.3542605 Z M124.875339,97.3542605 C126.346295,97.3542605 127.536232,98.5379095 127.536232,99.9989081 C127.536232,101.46209 126.346295,102.64574 124.875339,102.64574 C123.406579,102.64574 122.216642,101.46209 122.216642,99.9989081 C122.216642,98.5379095 123.406579,97.3542605 124.875339,97.3542605 Z M70.5593198,97.3542605 C72.0280798,97.3542605 73.218017,98.5379095 73.218017,99.9989081 C73.218017,101.46209 72.0280798,102.64574 70.5593198,102.64574 C69.0883643,102.64574 67.8984272,101.46209 67.8984272,99.9989081 C67.8984272,98.5379095 69.0883643,97.3542605 70.5593198,97.3542605 Z M97.7173295,97.3542605 C99.1860895,97.3542605 100.378222,98.5379095 100.378222,99.9989081 C100.378222,101.46209 99.1860895,102.64574 97.7173295,102.64574 C96.2485695,102.64574 95.0564369,101.46209 95.0564369,99.9989081 C95.0564369,98.5379095 96.2485695,97.3542605 97.7173295,97.3542605 Z M56.979327,97.3542605 C58.448087,97.3542605 59.6402196,98.5379095 59.6402196,99.9989081 C59.6402196,101.46209 58.448087,102.64574 56.979327,102.64574 C55.510567,102.64574 54.3184344,101.46209 54.3184344,99.9989081 C54.3184344,98.5379095 55.510567,97.3542605 56.979327,97.3542605 Z M43.3991146,97.3542605 C44.8678747,97.3542605 46.0600073,98.5379095 46.0600073,99.9989081 C46.0600073,101.46209 44.8678747,102.64574 43.3991146,102.64574 C41.9303546,102.64574 40.7404175,101.46209 40.7404175,99.9989081 C40.7404175,98.5379095 41.9303546,97.3542605 43.3991146,97.3542605 Z M29.8191218,97.3542605 C31.2900773,97.3542605 32.4800144,98.5379095 32.4800144,99.9989081 C32.4800144,101.46209 31.2900773,102.64574 29.8191218,102.64574 C28.3503618,102.64574 27.1604247,101.46209 27.1604247,99.9989081 C27.1604247,98.5379095 28.3503618,97.3542605 29.8191218,97.3542605 Z M56.979327,83.4459474 C58.448087,83.4459474 59.6402196,84.6317803 59.6402196,86.0927789 C59.6402196,87.5537774 58.448087,88.7374265 56.979327,88.7374265 C55.510567,88.7374265 54.3184344,87.5537774 54.3184344,86.0927789 C54.3184344,84.6317803 55.510567,83.4459474 56.979327,83.4459474 Z M84.1373367,83.4459474 C85.6060967,83.4459474 86.7982293,84.6317803 86.7982293,86.0927789 C86.7982293,87.5537774 85.6060967,88.7374265 84.1373367,88.7374265 C82.6685767,88.7374265 81.4786395,87.5537774 81.4786395,86.0927789 C81.4786395,84.6317803 82.6685767,83.4459474 84.1373367,83.4459474 Z M2.66089257,83.4459474 C4.12965261,83.4459474 5.32178519,84.6317803 5.32178519,86.0927789 C5.32178519,87.5537774 4.12965261,88.7374265 2.66089257,88.7374265 C1.19213254,88.7374265 -4.41999077e-08,87.5537774 -4.41999077e-08,86.0927789 C-4.41999077e-08,84.6317803 1.19213254,83.4459474 2.66089257,83.4459474 Z M16.2411049,83.4459474 C17.709865,83.4459474 18.8998021,84.6317803 18.8998021,86.0927789 C18.8998021,87.5537774 17.709865,88.7374265 16.2411049,88.7374265 C14.7723449,88.7374265 13.5802123,87.5537774 13.5802123,86.0927789 C13.5802123,84.6317803 14.7723449,83.4459474 16.2411049,83.4459474 Z M43.3991146,83.4459474 C44.8678747,83.4459474 46.0600073,84.6317803 46.0600073,86.0927789 C46.0600073,87.5537774 44.8678747,88.7374265 43.3991146,88.7374265 C41.9303546,88.7374265 40.7404175,87.5537774 40.7404175,86.0927789 C40.7404175,84.6317803 41.9303546,83.4459474 43.3991146,83.4459474 Z M29.8191218,83.4459474 C31.2900773,83.4459474 32.4800144,84.6317803 32.4800144,86.0927789 C32.4800144,87.5537774 31.2900773,88.7374265 29.8191218,88.7374265 C28.3503618,88.7374265 27.1604247,87.5537774 27.1604247,86.0927789 C27.1604247,84.6317803 28.3503618,83.4459474 29.8191218,83.4459474 Z M97.7173295,83.4459474 C99.1860895,83.4459474 100.378222,84.6317803 100.378222,86.0927789 C100.378222,87.5537774 99.1860895,88.7374265 97.7173295,88.7374265 C96.2485695,88.7374265 95.0564369,87.5537774 95.0564369,86.0927789 C95.0564369,84.6317803 96.2485695,83.4459474 97.7173295,83.4459474 Z M111.297542,83.4459474 C112.766302,83.4459474 113.956239,84.6317803 113.956239,86.0927789 C113.956239,87.5537774 112.766302,88.7374265 111.297542,88.7374265 C109.828782,88.7374265 108.636649,87.5537774 108.636649,86.0927789 C108.636649,84.6317803 109.828782,83.4459474 111.297542,83.4459474 Z M124.875339,83.4459474 C126.346295,83.4459474 127.536232,84.6317803 127.536232,86.0927789 C127.536232,87.5537774 126.346295,88.7374265 124.875339,88.7374265 C123.406579,88.7374265 122.216642,87.5537774 122.216642,86.0927789 C122.216642,84.6317803 123.406579,83.4459474 124.875339,83.4459474 Z M70.5593198,83.4459474 C72.0280798,83.4459474 73.218017,84.6317803 73.218017,86.0927789 C73.218017,87.5537774 72.0280798,88.7374265 70.5593198,88.7374265 C69.0883643,88.7374265 67.8984272,87.5537774 67.8984272,86.0927789 C67.8984272,84.6317803 69.0883643,83.4459474 70.5593198,83.4459474 Z M2.66089257,69.5389447 C4.12965261,69.5389447 5.32178519,70.7225937 5.32178519,72.1857761 C5.32178519,73.6467747 4.12965261,74.8304237 2.66089257,74.8304237 C1.19213254,74.8304237 -4.41999077e-08,73.6467747 -4.41999077e-08,72.1857761 C-4.41999077e-08,70.7225937 1.19213254,69.5389447 2.66089257,69.5389447 Z M16.2411049,69.5389447 C17.709865,69.5389447 18.8998021,70.7225937 18.8998021,72.1857761 C18.8998021,73.6467747 17.709865,74.8304237 16.2411049,74.8304237 C14.7723449,74.8304237 13.5802123,73.6467747 13.5802123,72.1857761 C13.5802123,70.7225937 14.7723449,69.5389447 16.2411049,69.5389447 Z M43.3991146,69.5389447 C44.8678747,69.5389447 46.0600073,70.7225937 46.0600073,72.1857761 C46.0600073,73.6467747 44.8678747,74.8304237 43.3991146,74.8304237 C41.9303546,74.8304237 40.7404175,73.6467747 40.7404175,72.1857761 C40.7404175,70.7225937 41.9303546,69.5389447 43.3991146,69.5389447 Z M29.8191218,69.5389447 C31.2900773,69.5389447 32.4800144,70.7225937 32.4800144,72.1857761 C32.4800144,73.6467747 31.2900773,74.8304237 29.8191218,74.8304237 C28.3503618,74.8304237 27.1604247,73.6467747 27.1604247,72.1857761 C27.1604247,70.7225937 28.3503618,69.5389447 29.8191218,69.5389447 Z M124.875339,69.5389447 C126.346295,69.5389447 127.536232,70.7225937 127.536232,72.1857761 C127.536232,73.6467747 126.346295,74.8304237 124.875339,74.8304237 C123.406579,74.8304237 122.216642,73.6467747 122.216642,72.1857761 C122.216642,70.7225937 123.406579,69.5389447 124.875339,69.5389447 Z M70.5593198,69.5389447 C72.0280798,69.5389447 73.218017,70.7225937 73.218017,72.1857761 C73.218017,73.6467747 72.0280798,74.8304237 70.5593198,74.8304237 C69.0883643,74.8304237 67.8984272,73.6467747 67.8984272,72.1857761 C67.8984272,70.7225937 69.0883643,69.5389447 70.5593198,69.5389447 Z M97.7173295,69.5389447 C99.1860895,69.5389447 100.378222,70.7225937 100.378222,72.1857761 C100.378222,73.6467747 99.1860895,74.8304237 97.7173295,74.8304237 C96.2485695,74.8304237 95.0564369,73.6467747 95.0564369,72.1857761 C95.0564369,70.7225937 96.2485695,69.5389447 97.7173295,69.5389447 Z M56.979327,69.5389447 C58.448087,69.5389447 59.6402196,70.7225937 59.6402196,72.1857761 C59.6402196,73.6467747 58.448087,74.8304237 56.979327,74.8304237 C55.510567,74.8304237 54.3184344,73.6467747 54.3184344,72.1857761 C54.3184344,70.7225937 55.510567,69.5389447 56.979327,69.5389447 Z M84.1373367,69.5389447 C85.6060967,69.5389447 86.7982293,70.7225937 86.7982293,72.1857761 C86.7982293,73.6467747 85.6060967,74.8304237 84.1373367,74.8304237 C82.6685767,74.8304237 81.4786395,73.6467747 81.4786395,72.1857761 C81.4786395,70.7225937 82.6685767,69.5389447 84.1373367,69.5389447 Z M111.297542,69.5389447 C112.766302,69.5389447 113.956239,70.7225937 113.956239,72.1857761 C113.956239,73.6467747 112.766302,74.8304237 111.297542,74.8304237 C109.828782,74.8304237 108.636649,73.6467747 108.636649,72.1857761 C108.636649,70.7225937 109.828782,69.5389447 111.297542,69.5389447 Z M97.7173295,55.6306316 C99.1860895,55.6306316 100.378222,56.8164645 100.378222,58.2774631 C100.378222,59.7384616 99.1860895,60.9221106 97.7173295,60.9221106 C96.2485695,60.9221106 95.0564369,59.7384616 95.0564369,58.2774631 C95.0564369,56.8164645 96.2485695,55.6306316 97.7173295,55.6306316 Z M70.5593198,55.6306316 C72.0280798,55.6306316 73.218017,56.8164645 73.218017,58.2774631 C73.218017,59.7384616 72.0280798,60.9221106 70.5593198,60.9221106 C69.0883643,60.9221106 67.8984272,59.7384616 67.8984272,58.2774631 C67.8984272,56.8164645 69.0883643,55.6306316 70.5593198,55.6306316 Z M124.875339,55.6306316 C126.346295,55.6306316 127.536232,56.8164645 127.536232,58.2774631 C127.536232,59.7384616 126.346295,60.9221106 124.875339,60.9221106 C123.406579,60.9221106 122.216642,59.7384616 122.216642,58.2774631 C122.216642,56.8164645 123.406579,55.6306316 124.875339,55.6306316 Z M56.979327,55.6306316 C58.448087,55.6306316 59.6402196,56.8164645 59.6402196,58.2774631 C59.6402196,59.7384616 58.448087,60.9221106 56.979327,60.9221106 C55.510567,60.9221106 54.3184344,59.7384616 54.3184344,58.2774631 C54.3184344,56.8164645 55.510567,55.6306316 56.979327,55.6306316 Z M111.297542,55.6306316 C112.766302,55.6306316 113.956239,56.8164645 113.956239,58.2774631 C113.956239,59.7384616 112.766302,60.9221106 111.297542,60.9221106 C109.828782,60.9221106 108.636649,59.7384616 108.636649,58.2774631 C108.636649,56.8164645 109.828782,55.6306316 111.297542,55.6306316 Z M29.8191218,55.6306316 C31.2900773,55.6306316 32.4800144,56.8164645 32.4800144,58.2774631 C32.4800144,59.7384616 31.2900773,60.9221106 29.8191218,60.9221106 C28.3503618,60.9221106 27.1604247,59.7384616 27.1604247,58.2774631 C27.1604247,56.8164645 28.3503618,55.6306316 29.8191218,55.6306316 Z M43.3991146,55.6306316 C44.8678747,55.6306316 46.0600073,56.8164645 46.0600073,58.2774631 C46.0600073,59.7384616 44.8678747,60.9221106 43.3991146,60.9221106 C41.9303546,60.9221106 40.7404175,59.7384616 40.7404175,58.2774631 C40.7404175,56.8164645 41.9303546,55.6306316 43.3991146,55.6306316 Z M16.2411049,55.6306316 C17.709865,55.6306316 18.8998021,56.8164645 18.8998021,58.2774631 C18.8998021,59.7384616 17.709865,60.9221106 16.2411049,60.9221106 C14.7723449,60.9221106 13.5802123,59.7384616 13.5802123,58.2774631 C13.5802123,56.8164645 14.7723449,55.6306316 16.2411049,55.6306316 Z M2.66089257,55.6306316 C4.12965261,55.6306316 5.32178519,56.8164645 5.32178519,58.2774631 C5.32178519,59.7384616 4.12965261,60.9221106 2.66089257,60.9221106 C1.19213254,60.9221106 -4.41999077e-08,59.7384616 -4.41999077e-08,58.2774631 C-4.41999077e-08,56.8164645 1.19213254,55.6306316 2.66089257,55.6306316 Z M84.1373367,55.6306316 C85.6060967,55.6306316 86.7982293,56.8164645 86.7982293,58.2774631 C86.7982293,59.7384616 85.6060967,60.9221106 84.1373367,60.9221106 C82.6685767,60.9221106 81.4786395,59.7384616 81.4786395,58.2774631 C81.4786395,56.8164645 82.6685767,55.6306316 84.1373367,55.6306316 Z M124.875339,41.7234105 C126.346295,41.7234105 127.536232,42.9070595 127.536232,44.3680581 C127.536232,45.8312405 126.346295,47.0148895 124.875339,47.0148895 C123.406579,47.0148895 122.216642,45.8312405 122.216642,44.3680581 C122.216642,42.9070595 123.406579,41.7234105 124.875339,41.7234105 Z M97.7173295,41.7234105 C99.1860895,41.7234105 100.378222,42.9070595 100.378222,44.3680581 C100.378222,45.8312405 99.1860895,47.0148895 97.7173295,47.0148895 C96.2485695,47.0148895 95.0564369,45.8312405 95.0564369,44.3680581 C95.0564369,42.9070595 96.2485695,41.7234105 97.7173295,41.7234105 Z M56.979327,41.7234105 C58.448087,41.7234105 59.6402196,42.9070595 59.6402196,44.3680581 C59.6402196,45.8312405 58.448087,47.0148895 56.979327,47.0148895 C55.510567,47.0148895 54.3184344,45.8312405 54.3184344,44.3680581 C54.3184344,42.9070595 55.510567,41.7234105 56.979327,41.7234105 Z M84.1373367,41.7234105 C85.6060967,41.7234105 86.7982293,42.9070595 86.7982293,44.3680581 C86.7982293,45.8312405 85.6060967,47.0148895 84.1373367,47.0148895 C82.6685767,47.0148895 81.4786395,45.8312405 81.4786395,44.3680581 C81.4786395,42.9070595 82.6685767,41.7234105 84.1373367,41.7234105 Z M70.5593198,41.7234105 C72.0280798,41.7234105 73.218017,42.9070595 73.218017,44.3680581 C73.218017,45.8312405 72.0280798,47.0148895 70.5593198,47.0148895 C69.0883643,47.0148895 67.8984272,45.8312405 67.8984272,44.3680581 C67.8984272,42.9070595 69.0883643,41.7234105 70.5593198,41.7234105 Z M29.8191218,41.7234105 C31.2900773,41.7234105 32.4800144,42.9070595 32.4800144,44.3680581 C32.4800144,45.8312405 31.2900773,47.0148895 29.8191218,47.0148895 C28.3503618,47.0148895 27.1604247,45.8312405 27.1604247,44.3680581 C27.1604247,42.9070595 28.3503618,41.7234105 29.8191218,41.7234105 Z M43.3991146,41.7234105 C44.8678747,41.7234105 46.0600073,42.9070595 46.0600073,44.3680581 C46.0600073,45.8312405 44.8678747,47.0148895 43.3991146,47.0148895 C41.9303546,47.0148895 40.7404175,45.8312405 40.7404175,44.3680581 C40.7404175,42.9070595 41.9303546,41.7234105 43.3991146,41.7234105 Z M16.2411049,41.7234105 C17.709865,41.7234105 18.8998021,42.9070595 18.8998021,44.3680581 C18.8998021,45.8312405 17.709865,47.0148895 16.2411049,47.0148895 C14.7723449,47.0148895 13.5802123,45.8312405 13.5802123,44.3680581 C13.5802123,42.9070595 14.7723449,41.7234105 16.2411049,41.7234105 Z M2.66089257,41.7234105 C4.12965261,41.7234105 5.32178519,42.9070595 5.32178519,44.3680581 C5.32178519,45.8312405 4.12965261,47.0148895 2.66089257,47.0148895 C1.19213254,47.0148895 -4.41999077e-08,45.8312405 -4.41999077e-08,44.3680581 C-4.41999077e-08,42.9070595 1.19213254,41.7234105 2.66089257,41.7234105 Z M111.297542,41.7234105 C112.766302,41.7234105 113.956239,42.9070595 113.956239,44.3680581 C113.956239,45.8312405 112.766302,47.0148895 111.297542,47.0148895 C109.828782,47.0148895 108.636649,45.8312405 108.636649,44.3680581 C108.636649,42.9070595 109.828782,41.7234105 111.297542,41.7234105 Z M56.979327,27.8153158 C58.448087,27.8153158 59.6402196,29.0011487 59.6402196,30.4621472 C59.6402196,31.9231458 58.448087,33.1067948 56.979327,33.1067948 C55.510567,33.1067948 54.3184344,31.9231458 54.3184344,30.4621472 C54.3184344,29.0011487 55.510567,27.8153158 56.979327,27.8153158 Z M97.7173295,27.8153158 C99.1860895,27.8153158 100.378222,29.0011487 100.378222,30.4621472 C100.378222,31.9231458 99.1860895,33.1067948 97.7173295,33.1067948 C96.2485695,33.1067948 95.0564369,31.9231458 95.0564369,30.4621472 C95.0564369,29.0011487 96.2485695,27.8153158 97.7173295,27.8153158 Z M111.297542,27.8153158 C112.766302,27.8153158 113.956239,29.0011487 113.956239,30.4621472 C113.956239,31.9231458 112.766302,33.1067948 111.297542,33.1067948 C109.828782,33.1067948 108.636649,31.9231458 108.636649,30.4621472 C108.636649,29.0011487 109.828782,27.8153158 111.297542,27.8153158 Z M70.5593198,27.8153158 C72.0280798,27.8153158 73.218017,29.0011487 73.218017,30.4621472 C73.218017,31.9231458 72.0280798,33.1067948 70.5593198,33.1067948 C69.0883643,33.1067948 67.8984272,31.9231458 67.8984272,30.4621472 C67.8984272,29.0011487 69.0883643,27.8153158 70.5593198,27.8153158 Z M84.1373367,27.8153158 C85.6060967,27.8153158 86.7982293,29.0011487 86.7982293,30.4621472 C86.7982293,31.9231458 85.6060967,33.1067948 84.1373367,33.1067948 C82.6685767,33.1067948 81.4786395,31.9231458 81.4786395,30.4621472 C81.4786395,29.0011487 82.6685767,27.8153158 84.1373367,27.8153158 Z M124.875339,27.8153158 C126.346295,27.8153158 127.536232,29.0011487 127.536232,30.4621472 C127.536232,31.9231458 126.346295,33.1067948 124.875339,33.1067948 C123.406579,33.1067948 122.216642,31.9231458 122.216642,30.4621472 C122.216642,29.0011487 123.406579,27.8153158 124.875339,27.8153158 Z M29.8191218,27.8153158 C31.2900773,27.8153158 32.4800144,29.0011487 32.4800144,30.4621472 C32.4800144,31.9231458 31.2900773,33.1067948 29.8191218,33.1067948 C28.3503618,33.1067948 27.1604247,31.9231458 27.1604247,30.4621472 C27.1604247,29.0011487 28.3503618,27.8153158 29.8191218,27.8153158 Z M43.3991146,27.8153158 C44.8678747,27.8153158 46.0600073,29.0011487 46.0600073,30.4621472 C46.0600073,31.9231458 44.8678747,33.1067948 43.3991146,33.1067948 C41.9303546,33.1067948 40.7404175,31.9231458 40.7404175,30.4621472 C40.7404175,29.0011487 41.9303546,27.8153158 43.3991146,27.8153158 Z M16.2411049,27.8153158 C17.709865,27.8153158 18.8998021,29.0011487 18.8998021,30.4621472 C18.8998021,31.9231458 17.709865,33.1067948 16.2411049,33.1067948 C14.7723449,33.1067948 13.5802123,31.9231458 13.5802123,30.4621472 C13.5802123,29.0011487 14.7723449,27.8153158 16.2411049,27.8153158 Z M2.66089257,27.8153158 C4.12965261,27.8153158 5.32178519,29.0011487 5.32178519,30.4621472 C5.32178519,31.9231458 4.12965261,33.1067948 2.66089257,33.1067948 C1.19213254,33.1067948 -4.41999077e-08,31.9231458 -4.41999077e-08,30.4621472 C-4.41999077e-08,29.0011487 1.19213254,27.8153158 2.66089257,27.8153158 Z M56.979327,13.9080947 C58.448087,13.9080947 59.6402196,15.0917437 59.6402196,16.5527423 C59.6402196,18.0159247 58.448087,19.1995737 56.979327,19.1995737 C55.510567,19.1995737 54.3184344,18.0159247 54.3184344,16.5527423 C54.3184344,15.0917437 55.510567,13.9080947 56.979327,13.9080947 Z M70.5593198,13.9080947 C72.0280798,13.9080947 73.218017,15.0917437 73.218017,16.5527423 C73.218017,18.0159247 72.0280798,19.1995737 70.5593198,19.1995737 C69.0883643,19.1995737 67.8984272,18.0159247 67.8984272,16.5527423 C67.8984272,15.0917437 69.0883643,13.9080947 70.5593198,13.9080947 Z M84.1373367,13.9080947 C85.6060967,13.9080947 86.7982293,15.0917437 86.7982293,16.5527423 C86.7982293,18.0159247 85.6060967,19.1995737 84.1373367,19.1995737 C82.6685767,19.1995737 81.4786395,18.0159247 81.4786395,16.5527423 C81.4786395,15.0917437 82.6685767,13.9080947 84.1373367,13.9080947 Z M97.7173295,13.9080947 C99.1860895,13.9080947 100.378222,15.0917437 100.378222,16.5527423 C100.378222,18.0159247 99.1860895,19.1995737 97.7173295,19.1995737 C96.2485695,19.1995737 95.0564369,18.0159247 95.0564369,16.5527423 C95.0564369,15.0917437 96.2485695,13.9080947 97.7173295,13.9080947 Z M111.297542,13.9080947 C112.766302,13.9080947 113.956239,15.0917437 113.956239,16.5527423 C113.956239,18.0159247 112.766302,19.1995737 111.297542,19.1995737 C109.828782,19.1995737 108.636649,18.0159247 108.636649,16.5527423 C108.636649,15.0917437 109.828782,13.9080947 111.297542,13.9080947 Z M124.875339,13.9080947 C126.346295,13.9080947 127.536232,15.0917437 127.536232,16.5527423 C127.536232,18.0159247 126.346295,19.1995737 124.875339,19.1995737 C123.406579,19.1995737 122.216642,18.0159247 122.216642,16.5527423 C122.216642,15.0917437 123.406579,13.9080947 124.875339,13.9080947 Z M29.8191218,13.9080947 C31.2900773,13.9080947 32.4800144,15.0917437 32.4800144,16.5527423 C32.4800144,18.0159247 31.2900773,19.1995737 29.8191218,19.1995737 C28.3503618,19.1995737 27.1604247,18.0159247 27.1604247,16.5527423 C27.1604247,15.0917437 28.3503618,13.9080947 29.8191218,13.9080947 Z M43.3991146,13.9080947 C44.8678747,13.9080947 46.0600073,15.0917437 46.0600073,16.5527423 C46.0600073,18.0159247 44.8678747,19.1995737 43.3991146,19.1995737 C41.9303546,19.1995737 40.7404175,18.0159247 40.7404175,16.5527423 C40.7404175,15.0917437 41.9303546,13.9080947 43.3991146,13.9080947 Z M16.2411049,13.9080947 C17.709865,13.9080947 18.8998021,15.0917437 18.8998021,16.5527423 C18.8998021,18.0159247 17.709865,19.1995737 16.2411049,19.1995737 C14.7723449,19.1995737 13.5802123,18.0159247 13.5802123,16.5527423 C13.5802123,15.0917437 14.7723449,13.9080947 16.2411049,13.9080947 Z M2.66089257,13.9080947 C4.12965261,13.9080947 5.32178519,15.0917437 5.32178519,16.5527423 C5.32178519,18.0159247 4.12965261,19.1995737 2.66089257,19.1995737 C1.19213254,19.1995737 -4.41999077e-08,18.0159247 -4.41999077e-08,16.5527423 C-4.41999077e-08,15.0917437 1.19213254,13.9080947 2.66089257,13.9080947 Z M70.5593198,-4.78699436e-09 C72.0280798,-4.78699436e-09 73.218017,1.1858329 73.218017,2.64683144 C73.218017,4.10782999 72.0280798,5.29147903 70.5593198,5.29147903 C69.0883643,5.29147903 67.8984272,4.10782999 67.8984272,2.64683144 C67.8984272,1.1858329 69.0883643,-4.78699436e-09 70.5593198,-4.78699436e-09 Z M84.1373367,-4.78724838e-09 C85.6060967,-4.78724838e-09 86.7982293,1.1858329 86.7982293,2.64683144 C86.7982293,4.10782999 85.6060967,5.29147903 84.1373367,5.29147903 C82.6685767,5.29147903 81.4786395,4.10782999 81.4786395,2.64683144 C81.4786395,1.1858329 82.6685767,-4.78724838e-09 84.1373367,-4.78724838e-09 Z M97.7173295,-4.78699436e-09 C99.1860895,-4.78699436e-09 100.378222,1.1858329 100.378222,2.64683144 C100.378222,4.10782999 99.1860895,5.29147903 97.7173295,5.29147903 C96.2485695,5.29147903 95.0564369,4.10782999 95.0564369,2.64683144 C95.0564369,1.1858329 96.2485695,-4.78699436e-09 97.7173295,-4.78699436e-09 Z M111.297542,-4.78724838e-09 C112.766302,-4.78724838e-09 113.956239,1.1858329 113.956239,2.64683144 C113.956239,4.10782999 112.766302,5.29147903 111.297542,5.29147903 C109.828782,5.29147903 108.636649,4.10782999 108.636649,2.64683144 C108.636649,1.1858329 109.828782,-4.78724838e-09 111.297542,-4.78724838e-09 Z M124.875339,-4.78724838e-09 C126.346295,-4.78724838e-09 127.536232,1.1858329 127.536232,2.64683144 C127.536232,4.10782999 126.346295,5.29147903 124.875339,5.29147903 C123.406579,5.29147903 122.216642,4.10782999 122.216642,2.64683144 C122.216642,1.1858329 123.406579,-4.78724838e-09 124.875339,-4.78724838e-09 Z M56.979327,-4.78699436e-09 C58.448087,-4.78699436e-09 59.6402196,1.1858329 59.6402196,2.64683144 C59.6402196,4.10782999 58.448087,5.29147903 56.979327,5.29147903 C55.510567,5.29147903 54.3184344,4.10782999 54.3184344,2.64683144 C54.3184344,1.1858329 55.510567,-4.78699436e-09 56.979327,-4.78699436e-09 Z M43.3991146,-4.85251617e-09 C44.8678747,-4.85251617e-09 46.0600073,1.1858329 46.0600073,2.64683144 C46.0600073,4.10782999 44.8678747,5.29147903 43.3991146,5.29147903 C41.9303546,5.29147903 40.7404175,4.10782999 40.7404175,2.64683144 C40.7404175,1.1858329 41.9303546,-4.85251617e-09 43.3991146,-4.85251617e-09 Z M29.8191218,-4.85251617e-09 C31.2900773,-4.85251617e-09 32.4800144,1.1858329 32.4800144,2.64683144 C32.4800144,4.10782999 31.2900773,5.29147903 29.8191218,5.29147903 C28.3503618,5.29147903 27.1604247,4.10782999 27.1604247,2.64683144 C27.1604247,1.1858329 28.3503618,-4.85251617e-09 29.8191218,-4.85251617e-09 Z M16.2411049,-4.87357088e-09 C17.709865,-4.87357088e-09 18.8998021,1.1858329 18.8998021,2.64683144 C18.8998021,4.10782999 17.709865,5.29147903 16.2411049,5.29147903 C14.7723449,5.29147903 13.5802123,4.10782999 13.5802123,2.64683144 C13.5802123,1.1858329 14.7723449,-4.87357088e-09 16.2411049,-4.87357088e-09 Z M2.66089257,-4.87966645e-09 C4.12965261,-4.87966645e-09 5.32178519,1.1858329 5.32178519,2.64683144 C5.32178519,4.10782999 4.12965261,5.29147903 2.66089257,5.29147903 C1.19213254,5.29147903 -4.41999077e-08,4.10782999 -4.41999077e-08,2.64683144 C-4.41999077e-08,1.1858329 1.19213254,-4.87966645e-09 2.66089257,-4.87966645e-09 Z" id="Combined-Shape"></path>
                    </g>
                </g>
            </g>
        </g>
    </g>
</svg>