<?xml version="1.0" encoding="UTF-8"?>
<svg  viewBox="0 0 204 64" version="1.1" xmlns="http://www.w3.org/2000/svg" xmlns:xlink="http://www.w3.org/1999/xlink">
    <title>Next - Button</title>
    <defs>
        <path d="M6,0 L182,0 C185.313708,-6.08718376e-16 188,2.6862915 188,6 L188,42 C188,45.3137085 185.313708,48 182,48 L6,48 C2.6862915,48 4.05812251e-16,45.3137085 0,42 L0,6 C-2.18216909e-15,2.6862915 2.6862915,6.08718376e-16 6,0 Z" id="path-1"></path>
        <filter x="-7.7%" y="-19.8%" width="115.4%" height="160.4%" filterUnits="objectBoundingBox" id="filter-2">
            <feOffset dx="0" dy="5" in="SourceAlpha" result="shadowOffsetOuter1"></feOffset>
            <feGaussianBlur stdDeviation="4" in="shadowOffsetOuter1" result="shadowBlurOuter1"></feGaussianBlur>
            <feColorMatrix values="0 0 0 0 0.729411765   0 0 0 0 0.00784313725   0 0 0 0 0.156862745  0 0 0 0.16873361 0" type="matrix" in="shadowBlurOuter1"></feColorMatrix>
        </filter>
    </defs>
    <g id="Page-1" stroke="none" stroke-width="1" fill="none" fill-rule="evenodd">
        <g id="stibitsweb1" transform="translate(-1094.000000, -32.000000)">
            <g id="Group-27">
                <g id="header" transform="translate(0.000000, 19.000000)">
                    <g id="Next---Button" transform="translate(1102.000000, 16.000000)">
                        <g id="Group-30">
                            <g id="button-bg">
                                <use fill="black" fill-opacity="1" filter="url(#filter-2)" xlink:href="#path-1"></use>
                                <use fill="#BA0228" fill-rule="evenodd" xlink:href="#path-1"></use>
                            </g>
                            <g id="computing-cloud" transform="translate(10.000000, 16.000000)" fill="#FFFFFF" fill-rule="nonzero">
                                <path d="M19.3549778,6.03500384 C18.6749635,2.59499493 15.6399538,0 11.9999766,0 C9.10999783,0 6.60500272,1.64001242 5.34997393,4.03499212 C2.34501104,4.36002273 0,6.90500214 0,10.0000117 C0,13.3150052 2.68499476,16 5.99998828,16 L18.9999473,16 C21.7599419,16 23.9999531,13.7599888 23.9999531,11 C23.9999531,8.3599993 21.9449571,6.2200191 19.3549778,6.03500384 Z M11.9999707,13.9999883 L6.9999707,8.99998242 L9.9999707,8.99998242 L9.9999707,5.00000586 L13.9999414,5.00000586 L13.9999414,8.99998242 L16.9999355,8.99998242 L11.9999707,13.9999883 Z" id="Shape"></path>
                            </g>
                            <text id="👉-Button" font-family="Helvetica" font-size="16" font-weight="normal" fill="#FFFFFF">
                                <tspan x="43" y="30">DOWNLOAD NOW</tspan>
                            </text>
                        </g>
                    </g>
                </g>
            </g>
        </g>
    </g>
</svg>