<?xml version="1.0" encoding="UTF-8"?>
<svg width="42px" height="40px" viewBox="0 0 42 40" version="1.1" xmlns="http://www.w3.org/2000/svg" xmlns:xlink="http://www.w3.org/1999/xlink">
    <title>email</title>
    <g id="Page-1" stroke="none" stroke-width="1" fill="none" fill-rule="evenodd">
        <g id="email" fill-rule="nonzero">
            <path d="M40.8874043,1.92697872 L25.6182128,12.9657872 L23.1126809,14.7813617 C21.7853617,15.7619574 19.973617,15.7619574 18.6462979,14.7813617 L16.140766,12.9657872 L0.853361702,1.94510638 C1.70365957,0.756 3.07719149,0.0522553191 4.53906383,0.0568286932 L37.2199149,0.0568286932 C38.6710638,0.0581276596 40.0341277,0.753191489 40.8874043,1.92697872 Z" id="Path" fill="#FF2345"></path>
            <g id="Group" transform="translate(0.000000, 1.872340)" fill="#E31030">
                <path d="M0.853361702,0.0727659574 L16.140766,11.0934468 L1.32544681,25.908766 C0.474723404,25.0559149 -0.00212765957,23.8998298 -3.96414217e-05,22.6951489 L-3.96414217e-05,2.72357447 C-0.004,1.77174468 0.294808511,0.843404255 0.853361702,0.0727659574 Z" id="Path"></path>
                <path d="M41.7589007,2.72357447 L41.7589007,22.695234 C41.7610213,23.8999149 41.2842553,25.056 40.4335319,25.9088511 L25.6182128,11.0935319 L40.8874043,0.0546382979 C41.4542979,0.82893617 41.7594894,1.76382979 41.7589007,2.72357447 Z" id="Path"></path>
            </g>
            <path d="M27.2340426,32.7377021 C26.0285106,32.7377021 25.4184681,31.8298723 25.4184681,30.0142979 C25.4481702,27.4775319 23.4158298,25.3971064 20.8790638,25.3674043 C18.3422979,25.3377021 16.2618723,27.3700426 16.2321702,29.9068085 C16.2024681,32.4435745 18.2348085,34.524 20.7715745,34.5537021 C22.1311489,34.569617 23.4279149,33.982383 24.312766,32.9501277 C24.9155745,33.9831489 26.0388936,34.5995745 27.2340426,34.5532766 C30.8652766,34.5532766 30.8652766,31.1363404 30.8652766,30.0142979 C30.8652766,24.4993191 26.3946383,20.0282553 20.8796596,20.0282553 C15.3646809,20.0282553 10.893617,24.4988936 10.893617,30.0139574 C10.893617,35.5289362 15.3642553,40 20.879234,40 C23.4702979,40 25.96,38.9929362 27.8222979,37.1914894 C28.1828085,36.8405106 28.1904681,36.2638298 27.8395745,35.9033191 C27.4885957,35.5428085 26.9119149,35.5351489 26.5514043,35.8860426 L26.5514043,35.8860426 C23.3036596,39.0185532 18.1314043,38.9251064 14.9988936,35.6773617 C11.866383,32.429617 11.9598298,27.2573617 15.2075745,24.1248511 C18.4553191,20.9923404 23.6275745,21.0857872 26.7600851,24.3335319 C28.2310638,25.8586383 29.052,27.8955745 29.0497021,30.014383 C29.0497021,32.049617 28.5921702,32.7377021 27.2340426,32.7377021 Z M20.8794894,32.7377021 C19.3754043,32.7377021 18.1560851,31.518383 18.1560851,30.0142979 C18.1560851,28.5102128 19.3754043,27.2908936 20.8794894,27.2908936 C22.3835745,27.2908936 23.6028936,28.5102128 23.6028936,30.0142979 C23.6028936,31.518383 22.3835745,32.7377021 20.8794894,32.7377021 Z" id="Shape" fill="#FED843"></path>
            <path d="M25.6182128,12.9657872 L23.1126809,14.7813617 C21.7853617,15.7619574 19.973617,15.7619574 18.6462979,14.7813617 L16.140766,12.9657872 L1.32544681,27.7811064 C2.17829787,28.6318298 3.33438298,29.1086809 4.53906383,29.1064758 L9.12340426,29.1064758 C9.61455319,22.6142979 15.2755745,17.7494468 21.7678298,18.2405957 C27.5771064,18.6800851 32.1942128,23.2971915 32.6337021,29.1064758 L37.2199149,29.1064758 C38.4245957,29.1085957 39.5806809,28.6318298 40.4335319,27.7811064 L25.6182128,12.9657872 Z" id="Path" fill="#CC001F"></path>
        </g>
    </g>
</svg>