<?xml version="1.0" encoding="UTF-8"?>
<svg  viewBox="0 0 202 88" version="1.1" xmlns="http://www.w3.org/2000/svg" xmlns:xlink="http://www.w3.org/1999/xlink">
    <title>google play</title>
    <defs>
        <filter x="-5.1%" y="-19.3%" width="110.2%" height="138.5%" filterUnits="objectBoundingBox" id="filter-1">
            <feOffset dx="0" dy="10" in="SourceAlpha" result="shadowOffsetOuter1"></feOffset>
            <feGaussianBlur stdDeviation="10" in="shadowOffsetOuter1" result="shadowBlurOuter1"></feGaussianBlur>
            <feColorMatrix values="0 0 0 0 0   0 0 0 0 0.0648229515   0 0 0 0 0.141524605  0 0 0 0.18946593 0" type="matrix" in="shadowBlurOuter1" result="shadowMatrixOuter1"></feColorMatrix>
            <feMerge>
                <feMergeNode in="shadowMatrixOuter1"></feMergeNode>
                <feMergeNode in="SourceGraphic"></feMergeNode>
            </feMerge>
        </filter>
        <path d="M6,0 L155.99988,0 C159.313588,-6.08718376e-16 161.99988,2.6862915 161.99988,6 L161.99988,41.99988 C161.99988,45.3135885 159.313588,47.99988 155.99988,47.99988 L6,47.99988 C2.6862915,47.99988 4.05812251e-16,45.3135885 0,41.99988 L0,6 C-4.05812251e-16,2.6862915 2.6862915,6.08718376e-16 6,0 Z" id="path-2"></path>
    </defs>
    <g id="Page-1" stroke="none" stroke-width="1" fill="none" fill-rule="evenodd">
        <g id="stibitsweb1" transform="translate(-538.000000, -5339.000000)">
            <g id="get" transform="translate(150.000000, 5164.000000)">
                <g id="Get-start" filter="url(#filter-1)">
                    <g id="google-play" transform="translate(408.000000, 185.000000)">
                        <g id="Group-3">
                            <mask id="mask-3" fill="white">
                                <use xlink:href="#path-2"></use>
                            </mask>
                            <path stroke="#FFB300" d="M155.99988,0.5 L6,0.5 C4.48121694,0.5 3.10621694,1.11560847 2.1109127,2.1109127 C1.11560847,3.10621694 0.5,4.48121694 0.5,6 L0.5,41.99988 C0.5,43.5186631 1.11560847,44.8936631 2.1109127,45.8889673 C3.10621694,46.8842715 4.48121694,47.49988 6,47.49988 L155.99988,47.49988 C157.518663,47.49988 158.893663,46.8842715 159.888967,45.8889673 C160.884272,44.8936631 161.49988,43.5186631 161.49988,41.99988 L161.49988,6 C161.49988,4.48121694 160.884272,3.10621694 159.888967,2.1109127 C158.893663,1.11560847 157.518663,0.5 155.99988,0.5 Z"></path>
                        </g>
                        <path d="M53.36328,8.23932 C53.87808,8.23932 54.37248,8.34012 54.84048,8.54052 C55.30968,8.74212 55.68528,9.00972 55.96728,9.34452 L55.33368,9.97812 C54.85728,9.40932 54.20088,9.12372 53.36328,9.12372 C52.60488,9.12372 51.94968,9.39012 51.39648,9.92292 C50.84328,10.45692 50.56728,11.14812 50.56728,12.00012 C50.56728,12.85092 50.84328,13.54332 51.39648,14.07612 C51.94968,14.61012 52.60488,14.87532 53.36328,14.87532 C54.16728,14.87532 54.83688,14.60772 55.37448,14.07132 C55.72248,13.72212 55.92408,13.23732 55.97688,12.61332 L53.36328,12.61332 L53.36328,11.74812 L56.85168,11.74812 C56.88528,11.93652 56.90208,12.11652 56.90208,12.29172 C56.90208,13.29732 56.60448,14.09772 56.00808,14.69532 C55.3822338,15.3510738 54.5825652,15.7041721 53.6100179,15.7546147 L53.36328,15.76092 L53.36328,15.76092 C52.32408,15.76092 51.43968,15.40092 50.71368,14.67972 C49.98528,13.95972 49.62288,13.06572 49.62288,12.00012 C49.62288,10.93332 49.98528,10.04052 50.71368,9.31932 C51.43968,8.59932 52.32408,8.23932 53.36328,8.23932 Z M85.69104,8.23932 C86.73744,8.23932 87.61464,8.60412 88.32624,9.33492 C89.03664,10.06572 89.39184,10.95372 89.39184,12.00012 C89.39184,13.05252 89.03784,13.94172 88.33104,14.66892 C87.6775015,15.3412892 86.8777477,15.702823 85.9308346,15.754465 L85.69104,15.76092 L85.69104,15.76092 C84.63864,15.76092 83.75904,15.39732 83.05224,14.66892 C82.34424,13.94172 81.99144,13.05252 81.99144,12.00012 C81.99144,10.94772 82.34424,10.05732 83.05224,9.33012 C83.75904,8.60292 84.63864,8.23932 85.69104,8.23932 Z M62.43324,8.40024 L62.43324,9.28464 L59.15484,9.28464 L59.15484,11.56704 L62.11044,11.56704 L62.11044,12.43224 L59.15484,12.43224 L59.15484,14.71464 L62.43324,14.71464 L62.43324,15.60024 L58.22964,15.60024 L58.22964,8.40024 L62.43324,8.40024 Z M68.34564,8.39988 L68.34564,9.28428 L66.33444,9.28428 L66.33444,15.59988 L65.40924,15.59988 L65.40924,9.28428 L63.39804,9.28428 L63.39804,8.39988 L68.34564,8.39988 Z M72.8508,8.4 L72.8508,15.6 L71.9256,15.6 L71.9256,8.4 L72.8508,8.4 Z M78.96516,8.39988 L78.96516,9.28428 L76.95396,9.28428 L76.95396,15.59988 L76.02876,15.59988 L76.02876,9.28428 L74.01756,9.28428 L74.01756,8.39988 L78.96516,8.39988 Z M96.24132,15.59988 L95.27532,15.59988 L91.61532,9.72708 L91.57452,9.72708 L91.61532,11.11548 L91.61532,15.59988 L90.69012,15.59988 L90.69012,8.39988 L91.81572,8.39988 L95.31492,14.00028 L95.35572,14.00028 L95.31492,12.61308 L95.31492,8.39988 L96.24132,8.39988 L96.24132,15.59988 Z M85.69104,9.12372 C84.91944,9.12372 84.26784,9.39372 83.73504,9.93372 C83.20344,10.47252 82.93584,11.16252 82.93584,12.00012 C82.93584,12.83772 83.20344,13.52652 83.73504,14.06652 C84.26784,14.60652 84.91944,14.87532 85.69104,14.87532 C86.46144,14.87532 87.11424,14.60652 87.64704,14.06652 C88.17984,13.52652 88.44744,12.83772 88.44744,12.00012 C88.44744,11.16252 88.17984,10.47252 87.64704,9.93372 C87.11424,9.39372 86.46144,9.12372 85.69104,9.12372 Z" id="Combined-Shape" fill="#FFFFFF"></path>
                        <path d="M128.3232,36 L130.5612,36 L130.5612,20.9988 L128.3232,20.9988 L128.3232,36 Z M148.4916,26.4024 L145.9248,32.9064 L145.848,32.9064 L143.184,26.4024 L140.772,26.4024 L144.768,35.4924 L142.4892,40.5492 L144.8244,40.5492 L150.9816,26.4024 L148.4916,26.4024 Z M135.792,34.296 C135.06,34.296 134.0364,33.9288 134.0364,33.0216 C134.0364,31.8648 135.3108,31.4196 136.4112,31.4196 C137.394,31.4196 137.8584,31.6332 138.456,31.9212 C138.282,33.312 137.0856,34.296 135.792,34.296 L135.792,34.296 Z M136.0632,26.0736 C134.442,26.0736 132.7632,26.7888 132.0684,28.3704 L134.0556,29.2008 C134.4804,28.3704 135.2712,28.1004 136.1016,28.1004 C137.2596,28.1004 138.4368,28.7952 138.456,30.03 L138.456,30.1848 C138.0504,29.9532 137.1816,29.6064 136.1208,29.6064 C133.9776,29.6064 131.7972,30.7836 131.7972,32.9832 C131.7972,34.9908 133.554,36.2844 135.522,36.2844 C137.0268,36.2844 137.8584,35.6088 138.378,34.8168 L138.456,34.8168 L138.456,35.9748 L140.6184,35.9748 L140.6184,30.2232 C140.6184,27.5604 138.6288,26.0736 136.0632,26.0736 L136.0632,26.0736 Z M122.2248,28.2288 L119.04,28.2288 L119.04,23.0868 L122.2248,23.0868 C123.8988,23.0868 124.8492,24.4716 124.8492,25.6572 C124.8492,26.82 123.8988,28.2288 122.2248,28.2288 L122.2248,28.2288 Z M122.1672,20.9976 L116.802,20.9976 L116.802,36 L119.04,36 L119.04,30.3168 L122.1672,30.3168 C124.6488,30.3168 127.0884,28.5192 127.0884,25.6572 C127.0884,22.7952 124.6488,20.9976 122.1672,20.9976 L122.1672,20.9976 Z M92.91,34.2984 C91.3632,34.2984 90.0684,33.0036 90.0684,31.2252 C90.0684,29.4264 91.3632,28.1124 92.91,28.1124 C94.4364,28.1124 95.6352,29.4264 95.6352,31.2252 C95.6352,33.0036 94.4364,34.2984 92.91,34.2984 L92.91,34.2984 Z M95.4804,27.2424 L95.4036,27.2424 C94.9008,26.6436 93.9336,26.1012 92.7168,26.1012 C90.1644,26.1012 87.8244,28.344 87.8244,31.2252 C87.8244,34.086 90.1644,36.3096 92.7168,36.3096 C93.9336,36.3096 94.9008,35.7684 95.4036,35.1492 L95.4804,35.1492 L95.4804,35.8836 C95.4804,37.8372 94.4364,38.88 92.7552,38.88 C91.3824,38.88 90.5316,37.8948 90.1836,37.0632 L88.2312,37.8756 C88.7916,39.228 90.2796,40.8912 92.7552,40.8912 C95.3844,40.8912 97.608,39.3444 97.608,35.574 L97.608,26.4108 L95.4804,26.4108 L95.4804,27.2424 Z M99.1548,36 L101.3964,36 L101.3964,20.9988 L99.1548,20.9988 L99.1548,36 Z M104.7024,31.0512 C104.6448,29.0784 106.23,28.074 107.37,28.074 C108.2604,28.074 109.014,28.5192 109.266,29.1564 L104.7024,31.0512 Z M111.6624,29.3496 C111.2364,28.2096 109.9416,26.1012 107.2932,26.1012 C104.664,26.1012 102.4788,28.17 102.4788,31.206 C102.4788,34.0668 104.6448,36.3096 107.544,36.3096 C109.8828,36.3096 111.2364,34.8792 111.798,34.0476 L110.058,32.8872 C109.4772,33.738 108.6852,34.2984 107.544,34.2984 C106.404,34.2984 105.5916,33.7764 105.0708,32.7516 L111.894,29.9292 L111.6624,29.3496 Z M57.2928,27.6684 L57.2928,29.8332 L62.4732,29.8332 C62.3196,31.0512 61.9128,31.9404 61.2948,32.5584 C60.54,33.3132 59.3604,34.1448 57.2928,34.1448 C54.102,34.1448 51.6084,31.5732 51.6084,28.3836 C51.6084,25.194 54.102,22.6212 57.2928,22.6212 C59.0136,22.6212 60.27,23.298 61.1976,24.1692 L62.7252,22.6416 C61.4292,21.4044 59.7096,20.4564 57.2928,20.4564 C52.9224,20.4564 49.2492,24.0144 49.2492,28.3836 C49.2492,32.7516 52.9224,36.3096 57.2928,36.3096 C59.6508,36.3096 61.4292,35.5356 62.8212,34.086 C64.2516,32.6556 64.6968,30.6444 64.6968,29.0208 C64.6968,28.5192 64.6584,28.0548 64.5804,27.6684 L57.2928,27.6684 Z M70.5864,34.2984 C69.0408,34.2984 67.7064,33.0228 67.7064,31.206 C67.7064,29.3688 69.0408,28.1124 70.5864,28.1124 C72.1332,28.1124 73.4676,29.3688 73.4676,31.206 C73.4676,33.0228 72.1332,34.2984 70.5864,34.2984 L70.5864,34.2984 Z M70.5864,26.1012 C67.764,26.1012 65.4636,28.248 65.4636,31.206 C65.4636,34.1448 67.764,36.3096 70.5864,36.3096 C73.41,36.3096 75.7104,34.1448 75.7104,31.206 C75.7104,28.248 73.41,26.1012 70.5864,26.1012 L70.5864,26.1012 Z M81.7632,34.2984 C80.2164,34.2984 78.882,33.0228 78.882,31.206 C78.882,29.3688 80.2164,28.1124 81.7632,28.1124 C83.31,28.1124 84.6432,29.3688 84.6432,31.206 C84.6432,33.0228 83.31,34.2984 81.7632,34.2984 L81.7632,34.2984 Z M81.7632,26.1012 C78.9408,26.1012 76.6404,28.248 76.6404,31.206 C76.6404,34.1448 78.9408,36.3096 81.7632,36.3096 C84.5856,36.3096 86.886,34.1448 86.886,31.206 C86.886,28.248 84.5856,26.1012 81.7632,26.1012 L81.7632,26.1012 Z" id="Fill-28" fill="#FFFFFF"></path>
                        <g transform="translate(11.000000, 10.000000)" fill="#FFFFFF" fill-rule="nonzero" id="Combined-Shape">
                            <path d="M14.5446082,14.6222768 L19.7878674,19.4585809 L5.2265575,27.4946355 C4.67987524,27.7967953 4.08254191,27.9470019 3.48870175,27.9470019 C2.87390253,27.9470019 2.26259649,27.7793294 1.7054347,27.4614503 L1.7054347,27.4614503 L14.5446082,14.6222768 Z M0.489808967,1.65734893 L13.2608655,13.4380897 L0.456623782,26.2423314 C0.163196881,25.7445536 0.000764132554,25.1751657 0.000764132554,24.5778324 L0.000764132554,24.5778324 L0.000764132554,3.36376608 C0.000764132554,2.74722027 0.178916179,2.16560624 0.489808967,1.65734893 L0.489808967,1.65734893 Z M20.3642417,8.80264327 L24.4442729,11.0539961 C25.5428772,11.6600624 26.197848,12.7499337 26.1995945,13.9690526 C26.1995945,15.1881715 25.5428772,16.2780429 24.4460195,16.8858558 L24.4460195,16.8858558 L21.3982222,18.5678207 L15.7794464,13.385692 L20.3642417,8.80264327 Z M1.76307212,0.455695906 C2.84945029,-0.143384016 4.13319298,-0.157356725 5.2265575,0.446962963 L5.2265575,0.446962963 L18.7730994,7.92410916 L14.4957037,12.2015049 Z"></path>
                        </g>
                    </g>
                </g>
            </g>
        </g>
    </g>
</svg>