<?xml version="1.0" encoding="UTF-8"?>
<svg width="107px" height="120px" viewBox="0 0 107 120" version="1.1" xmlns="http://www.w3.org/2000/svg" xmlns:xlink="http://www.w3.org/1999/xlink">
    <title>id-card</title>
    <g id="Page-1" stroke="none" stroke-width="1" fill="none" fill-rule="evenodd">
        <g id="stibitsweb1" transform="translate(-1033.000000, -3832.000000)" fill-rule="nonzero">
            <g id="image-copy-2" transform="translate(0.000000, 3436.000000)">
                <g id="texte" transform="translate(151.000000, 60.000000)">
                    <g id="Group-22">
                        <g id="1-copy-2" transform="translate(760.000000, 116.000000)">
                            <g id="id-card" transform="translate(122.000000, 220.000000)">
                                <path d="M79.5521239,0.371637734 C81.2888795,-0.496282422 83.4000854,0.207758281 84.2680053,1.94451359 C85.1368409,3.68035344 84.4328002,5.79247508 82.6960449,6.660395 L82.6960449,6.660395 L70.5772095,12.7202705 L70.577,20 L94.4441731,20 C101.186523,20 106.666667,25.4801433 106.666667,32.2224935 L106.666667,87.7775065 C106.666667,94.5198567 101.186523,100 94.4441731,100 L70.577,100 L70.5772095,107.279596 L82.6960449,113.338557 C84.4328002,114.207392 85.1368409,116.318598 84.2680053,118.055353 C83.4000854,119.791193 81.2888795,120.496149 79.5521239,119.627314 L79.5521239,119.627314 L65.4896239,112.596979 C64.2985229,112.000971 63.5459595,110.78332 63.5459595,109.452143 L63.5459595,109.452143 L63.545,100 L56.514,100 L56.5147095,116.483393 C56.5147095,118.359614 55.0440887,119.894119 53.1919964,119.994334 L52.9990845,119.99954 C51.0581666,119.99954 49.4834595,118.424311 49.4834595,116.483393 L49.4834595,116.483393 L49.483,100 L42.452,100 L42.4522095,116.483393 C42.4522095,118.359614 40.9815887,119.894119 39.1294964,119.994334 L38.9365845,119.99954 C36.9956666,119.99954 35.4209595,118.424311 35.4209595,116.483393 L35.4209595,116.483393 L35.42,100 L28.39,100 L28.390625,109.452143 C28.390625,110.713258 27.715194,111.872483 26.6313388,112.497781 L26.4469604,112.596979 L12.3844604,119.627314 C10.6486205,120.496149 8.53649891,119.792109 7.66766352,118.055353 C6.79974359,116.318598 7.50286859,114.207392 9.23962391,113.338557 L9.23962391,113.338557 L21.3584595,107.279596 L21.358,100 L12.2224935,100 C5.48014333,100 3.69482223e-13,94.5198567 3.69482223e-13,87.7775065 L3.69482223e-13,32.2224935 C3.69482223e-13,25.4801433 5.48014333,20 12.2224935,20 L21.358,20 L21.3584595,12.7202705 L9.23962391,6.660395 C7.50378406,5.79247508 6.79974359,3.68035344 7.66766352,1.94451359 C8.53649891,0.207758281 10.6477051,-0.496282422 12.3844604,0.371637734 L12.3844604,0.371637734 L26.4469604,7.40288773 C27.6380614,7.99889586 28.390625,9.21563164 28.390625,10.547724 L28.390625,10.547724 L28.39,20 L35.42,20 L35.4209595,3.51647398 C35.4209595,1.63936833 36.8924358,0.105384029 38.7437582,0.00520408154 L38.9365845,2.55795385e-13 C40.878418,2.55795385e-13 42.4522095,1.57464055 42.4522095,3.51647398 L42.4522095,3.51647398 L42.452,20 L49.483,20 L49.4834595,3.51647398 C49.4834595,1.63936833 50.9549358,0.105384029 52.8062582,0.00520408154 L52.9990845,2.55795385e-13 C54.940918,2.55795385e-13 56.5147095,1.57464055 56.5147095,3.51647398 L56.5147095,3.51647398 L56.514,20 L63.545,20 L63.5459595,10.547724 C63.5459595,9.28574176 64.2213904,8.12729286 65.3052455,7.502079 L65.4896239,7.40288773 Z M92.9759288,28 L13.6907378,28 C10.7377697,28 8.33333333,30.39375 8.33333333,33.3335938 L8.33333333,86.6664062 C8.33333333,89.60625 10.7377697,92 13.6907378,92 L92.9759288,92 C95.9288969,92 98.3333333,89.60625 98.3333333,86.6664062 L98.3333333,33.3335938 C98.3333333,30.39375 95.9288969,28 92.9759288,28 Z M90,75.5558269 C91.8400065,75.5558269 93.3333333,77.0491537 93.3333333,78.8891602 C93.3333333,80.7291667 91.8400065,82.2224935 90,82.2224935 L65.5558269,82.2224935 C63.7158204,82.2224935 62.2224935,80.7291667 62.2224935,78.8891602 C62.2224935,77.0491537 63.7158204,75.5558269 65.5558269,75.5558269 L90,75.5558269 Z M90,57.7775065 C91.8400065,57.7775065 93.3333333,59.2708333 93.3333333,61.1108398 C93.3333333,62.9508462 91.8400065,64.4441731 90,64.4441731 L65.5558269,64.4441731 C63.7158204,64.4441731 62.2224935,62.9508462 62.2224935,61.1108398 C62.2224935,59.2708333 63.7158204,57.7775065 65.5558269,57.7775065 L90,57.7775065 Z M90,40 C91.8400065,40 93.3333333,41.4933269 93.3333333,43.3333333 C93.3333333,45.1733398 91.8400065,46.6666667 90,46.6666667 L65.5558269,46.6666667 C63.7158204,46.6666667 62.2224935,45.1733398 62.2224935,43.3333333 C62.2224935,41.4933269 63.7158204,40 65.5558269,40 L90,40 Z" id="Combined-Shape" fill="#315A9F"></path>
                                <path d="M41.1108398,64.4441731 C47.85319,64.4441731 53.3333333,69.9243165 53.3333333,76.6666667 L53.3333333,78.8891602 C53.3333333,80.7291667 51.8400065,82.2224935 50,82.2224935 C48.1599935,82.2224935 46.6666667,80.7291667 46.6666667,78.8891602 L46.6666667,76.6666667 C46.6666667,73.6043294 44.1731771,71.1108398 41.1108398,71.1108398 L25.5558269,71.1108398 C22.4934896,71.1108398 20,73.6043294 20,76.6666667 L20,78.8891602 C20,80.7291667 18.5066731,82.2224935 16.6666667,82.2224935 C14.8266602,82.2224935 13.3333333,80.7291667 13.3333333,78.8891602 L13.3333333,76.6666667 C13.3333333,69.9243165 18.8134767,64.4441731 25.5558269,64.4441731 L41.1108398,64.4441731 Z M33.3333333,37.7775065 C39.4580079,37.7775065 44.4441731,42.7644856 44.4441731,48.8891602 C44.4441731,55.0130208 39.4580079,60 33.3333333,60 C27.2086588,60 22.2224935,55.0130208 22.2224935,48.8891602 C22.2224935,42.7644856 27.2086588,37.7775065 33.3333333,37.7775065 Z M33.3333333,44.4441731 C30.8846029,44.4441731 28.8891602,46.4396158 28.8891602,48.8891602 C28.8891602,51.3378906 30.8846029,53.3333333 33.3333333,53.3333333 C35.7820638,53.3333333 37.7775065,51.3378906 37.7775065,48.8891602 C37.7775065,46.4396158 35.7820638,44.4441731 33.3333333,44.4441731 Z" id="Combined-Shape" fill="#C2E234"></path>
                            </g>
                        </g>
                    </g>
                </g>
            </g>
        </g>
    </g>
</svg>