<?xml version="1.0" encoding="UTF-8"?>
<svg width="40px" height="40px" viewBox="0 0 40 40" version="1.1" xmlns="http://www.w3.org/2000/svg" xmlns:xlink="http://www.w3.org/1999/xlink">
    <title>location</title>
    <g id="Page-1" stroke="none" stroke-width="1" fill="none" fill-rule="evenodd">
        <g id="location" fill-rule="nonzero">
            <path d="M35.0396537,27.0264935 L24.5963636,27.0264935 C23.1972144,29.2402062 21.6621479,31.3650334 20,33.3887446 C18.3378521,31.3650334 16.8027856,29.2402062 15.4036364,27.0264935 L4.96034632,27.0264935 L0.0193939394,39.9806061 L39.9806061,39.9806061 L35.0396537,27.0264935 Z" id="Path" fill="#DFEEF4"></path>
            <path d="M20,0.0207792208 C14.126256,0.0207792208 9.36469342,4.78253302 9.36450216,10.6562771 C9.3021645,20.8034632 20,33.3887446 20,33.3887446 C20,33.3887446 30.6978355,20.8034632 30.6354978,10.6562771 C30.6353066,4.78253302 25.873744,0.0207792208 20,0.0207792208 Z M20,15.1688315 C17.5077852,15.1688315 15.4874459,13.1484919 15.4874459,10.6562771 C15.4874459,8.16406224 17.5077852,6.14372294 20,6.14372294 C22.4922148,6.14372294 24.5125544,8.16406224 24.5125544,10.6562771 C24.5130137,11.8532216 24.0377328,13.0012745 23.1913651,13.8476422 C22.3449974,14.6940099 21.1969446,15.1692907 20,15.1688315 Z" id="Shape" fill="#CC001F"></path>
            <path d="M36.187013,30.0294372 L16.2458874,37.1220779 L8.47445887,27.0268398 L15.404329,27.0268398 C16.8031361,29.2405031 18.3379765,31.3652219 20,33.3887446 C21.6620235,31.3652219 23.1968639,29.2405031 24.595671,27.0268398 L35.0406926,27.0268398 L36.187013,30.0294372 Z" id="Path" fill="#F2DA30"></path>
            <polygon id="Path" fill="#3EA2E5" points="8.21125541 39.9806061 27.9501299 32.9593074 33.3541126 39.9806061"></polygon>
        </g>
    </g>
</svg>