<?xml version="1.0" encoding="UTF-8"?>
<svg width="46px" height="40px" viewBox="0 0 46 40" version="1.1" xmlns="http://www.w3.org/2000/svg" xmlns:xlink="http://www.w3.org/1999/xlink">
    <title>phone</title>
    <g id="Page-1" stroke="none" stroke-width="1" fill="none" fill-rule="evenodd">
        <g id="phone" fill-rule="nonzero">
            <path d="M36.0888889,-5.05274834e-15 L30.7555556,-5.05274834e-15 L25.4222222,-5.05274834e-15 C20.2763556,-5.05274834e-15 16,4.18746667 16,9.33333333 C16,14.0273778 19.572,17.9232 24.0888889,18.5716444 L24.0888889,22.6666667 C24.0888889,23.2056889 24.4130667,23.6927111 24.9118222,23.8984 C25.4036444,24.1036444 25.9805333,23.9936 26.3649778,23.6093333 L30.7555556,19.2187556 L31.3076444,18.6666667 L36.0888889,18.6666667 C41.2347556,18.6666667 45.5111111,14.4792 45.5111111,9.33333333 C45.5111111,4.18746667 41.2347556,-5.05274834e-15 36.0888889,-5.05274834e-15 Z" id="Path" fill="#FED843"></path>
            <path d="M33.9555556,30.6666667 L33.9555556,36 C33.9555556,38.32 32.0613333,40 29.9742222,40 C22.2933333,40 14.8,36.3688889 9.22666667,30.8177778 C3.65333333,25.2666667 0,17.7955556 0,10.1146667 C0,7.90844444 1.79466667,6.13333333 4,6.13333333 L9.33333333,6.13333333 C9.90755556,6.13333333 10.4168889,6.50044444 10.5973333,7.04444444 L13.264,15.0257778 C13.3946667,15.4168889 13.3368889,15.8453333 13.1093333,16.1875556 L10.848,19.5804444 C11.7048889,21.3777778 13.2213333,23.3422222 14.9724444,25.072 C16.7244444,26.8008889 18.7111111,28.2951111 20.5084444,29.152 L23.9013333,26.8906667 C24.2453333,26.664 24.672,26.6044444 25.0631111,26.736 L33.0631111,29.4026667 C33.6071111,29.5831111 33.9555556,30.0924444 33.9555556,30.6666667 Z" id="Path" fill="#CC001F"></path>
            <circle id="Oval" fill="#613D5C" cx="25.4221333" cy="9.33324444" r="1.33333333"></circle>
            <circle id="Oval" fill="#613D5C" cx="30.7555556" cy="9.33315556" r="1.33333333"></circle>
            <g id="Group" transform="translate(30.755556, 8.000000)" fill="#4B2746">
                <path d="M1.33333333,1.33315556 C1.33333333,0.5968 0.736355556,-0.000177777778 0,-0.000177777778 L0,2.66648889 C0.736355556,2.66648889 1.33333333,2.06951111 1.33333333,1.33315556 Z" id="Path"></path>
                <circle id="Oval" cx="5.33324444" cy="1.33324444" r="1.33333333"></circle>
            </g>
        </g>
    </g>
</svg>