<?xml version="1.0" encoding="UTF-8"?>
<svg width="80px" height="80px" viewBox="0 0 80 80" version="1.1" xmlns="http://www.w3.org/2000/svg" xmlns:xlink="http://www.w3.org/1999/xlink">
    <title>Play</title>
    <defs>
        <linearGradient x1="50%" y1="0%" x2="50%" y2="100%" id="linearGradient-1">
            <stop stop-color="#08254D" offset="0%"></stop>
            <stop stop-color="#02142D" offset="100%"></stop>
        </linearGradient>
    </defs>
    <g id="Page-1" stroke="none" stroke-width="1" fill="none" fill-rule="evenodd">
        <g id="Play">
            <rect id="Rectangle" fill="#FFFFFF" x="31" y="28" width="22" height="25"></rect>
            <path d="M40,0 C17.9426562,0 0,17.944375 0,40 C0,62.055625 17.9426562,80 40,80 C62.0573438,80 80,62.055625 80,40 C80,17.944375 62.0573437,0 40,0 Z M55.2541265,40.8875553 L32.5042217,55.7373444 C32.2376206,55.9129122 31.9297345,56 31.6250476,56 C31.3584466,56 31.0886463,55.9322478 30.8474866,55.7985997 C30.3237298,55.5085648 30,54.9541727 30,54.3499719 L30,24.6503937 C30,24.0461929 30.3237298,23.4918008 30.8474866,23.2017658 C31.3616458,22.9149793 32.0059062,22.9326134 32.5042217,23.2630212 L55.2541265,38.1128103 C55.7175552,38.4156841 56,38.9394485 56,39.5001828 C56,40.060917 55.7175552,40.5845267 55.2541265,40.8875553 Z" id="Shape" fill-opacity="0.228079416" fill="#011128" fill-rule="nonzero"></path>
            <path d="M40,7.5 C48.9606206,7.5 57.0853567,11.1450138 62.9700881,17.0297452 C68.8550495,22.9147065 72.5,31.0397271 72.5,40 C72.5,48.9602729 68.8550495,57.0852935 62.9700881,62.9702548 C57.0853567,68.8549862 48.9606206,72.5 40,72.5 C31.0393794,72.5 22.9146433,68.8549862 17.0299119,62.9702548 C11.1449505,57.0852935 7.5,48.9602729 7.5,40 C7.5,31.0397271 11.1449505,22.9147065 17.0299119,17.0297452 C22.9146433,11.1450138 31.0393794,7.5 40,7.5 Z M32.4445773,25.5012188 C32.1119473,25.4893269 31.7769934,25.5646946 31.4797549,25.7250068 C31.1784393,25.8863445 30.9339362,26.1225432 30.7647242,26.4022195 C30.5941903,26.6840807 30.5,27.0102046 30.5,27.3503221 L30.5,51.649977 C30.5,51.9900945 30.5941903,52.3162183 30.7647242,52.5980796 C30.9339362,52.8777558 31.1784393,53.1139545 31.4810829,53.2760059 C31.7582445,53.4245282 32.068459,53.5 32.3750403,53.5 C32.7260488,53.5 33.0804932,53.4023567 33.3875169,53.2068528 L52.6357468,41.0580964 C53.1742059,40.7176463 53.5,40.1289995 53.5,39.5001495 C53.5,38.8712533 53.1741297,38.2824309 52.6359833,37.942352 L33.3858274,25.7923752 C33.1026794,25.6108255 32.7750027,25.513032 32.4445773,25.5012188 Z" id="Shape-Copy-2" stroke="#FFFFFF" fill-rule="nonzero"></path>
            <path d="M40,15 C26.2141602,15 15,26.2152344 15,40 C15,53.7847656 26.2141602,65 40,65 C53.7858398,65 65,53.7847656 65,40 C65,26.2152344 53.7858398,15 40,15 Z M49.9385742,40.8758789 L35.3552734,50.2508789 C35.184375,50.3617187 34.9870117,50.4166992 34.7916992,50.4166992 C34.6208008,50.4166992 34.4478516,50.3739258 34.2932617,50.2895508 C33.9575195,50.1064453 33.75,49.7564453 33.75,49.375 L33.75,30.625 C33.75,30.2435547 33.9575195,29.8935547 34.2932617,29.7104492 C34.6228516,29.5293945 35.0358398,29.5405273 35.3552734,29.7491211 L49.9385742,39.1241211 C50.2356445,39.315332 50.4166992,39.6459961 50.4166992,40 C50.4166992,40.3540039 50.2356445,40.6845703 49.9385742,40.8758789 Z" id="Shape-Copy" fill="url(#linearGradient-1)" fill-rule="nonzero"></path>
        </g>
    </g>
</svg>